<?xml version="1.0" encoding="UTF-8"?>
<svg width="32px" height="32px" viewBox="0 0 32 32" version="1.1" xmlns="http://www.w3.org/2000/svg">
    <title>Event Marker</title>
    <g stroke="none" stroke-width="1" fill="none" fill-rule="evenodd">
        <circle fill="#10B981" cx="16" cy="16" r="16"></circle>
        <path d="M21,11 C21.5522847,11 22,11.4477153 22,12 L22,21 C22,21.5522847 21.5522847,22 21,22 L11,22 C10.4477153,22 10,21.5522847 10,21 L10,12 C10,11.4477153 10.4477153,11 11,11 L21,11 Z M20,13 L12,13 L12,20 L20,20 L20,13 Z M14,9 C14.5522847,9 15,9.44771525 15,10 L15,12 C15,12.5522847 14.5522847,13 14,13 C13.4477153,13 13,12.5522847 13,12 L13,10 C13,9.44771525 13.4477153,9 14,9 Z M18,9 C18.5522847,9 19,9.44771525 19,10 L19,12 C19,12.5522847 18.5522847,13 18,13 C17.4477153,13 17,12.5522847 17,12 L17,10 C17,9.44771525 17.4477153,9 18,9 Z M14,15 L16,15 L16,17 L14,17 L14,15 Z M17,15 L19,15 L19,17 L17,17 L17,15 Z M14,18 L16,18 L16,20 L14,20 L14,18 Z" fill="#FFFFFF" fill-rule="nonzero"></path>
    </g>
</svg>
