<?xml version="1.0" encoding="UTF-8"?>
<svg width="32px" height="32px" viewBox="0 0 32 32" version="1.1" xmlns="http://www.w3.org/2000/svg">
    <title>Outbreak Marker</title>
    <g stroke="none" stroke-width="1" fill="none" fill-rule="evenodd">
        <circle fill="#EF4444" cx="16" cy="16" r="16"></circle>
        <path d="M16,8 C16.5522847,8 17,8.44771525 17,9 L17,15 C17,15.5522847 16.5522847,16 16,16 C15.4477153,16 15,15.5522847 15,15 L15,9 C15,8.44771525 15.4477153,8 16,8 Z M16,20 C16.8284271,20 17.5,19.3284271 17.5,18.5 C17.5,17.6715729 16.8284271,17 16,17 C15.1715729,17 14.5,17.6715729 14.5,18.5 C14.5,19.3284271 15.1715729,20 16,20 Z" fill="#FFFFFF" fill-rule="nonzero"></path>
    </g>
</svg>
