<svg xmlns="http://www.w3.org/2000/svg" viewBox="0 0 500 500"><g id="background-complete"><rect y="382.4" width="500" height="0.25" style="fill:#ebebeb"></rect><rect x="416.78" y="398.49" width="33.12" height="0.25" style="fill:#ebebeb"></rect><rect x="322.53" y="401.21" width="8.69" height="0.25" style="fill:#ebebeb"></rect><rect x="396.59" y="389.21" width="19.19" height="0.25" style="fill:#ebebeb"></rect><rect x="52.46" y="390.89" width="43.19" height="0.25" style="fill:#ebebeb"></rect><rect x="104.56" y="390.89" width="6.33" height="0.25" style="fill:#ebebeb"></rect><rect x="131.47" y="395.11" width="93.68" height="0.25" style="fill:#ebebeb"></rect><path d="M237,337.8H43.91a5.71,5.71,0,0,1-5.7-5.71V60.66A5.71,5.71,0,0,1,43.91,55H237a5.71,5.71,0,0,1,5.71,5.71V332.09A5.71,5.71,0,0,1,237,337.8ZM43.91,55.2a5.46,5.46,0,0,0-5.45,5.46V332.09a5.46,5.46,0,0,0,5.45,5.46H237a5.47,5.47,0,0,0,5.46-5.46V60.66A5.47,5.47,0,0,0,237,55.2Z" style="fill:#ebebeb"></path><path d="M453.31,337.8H260.21a5.72,5.72,0,0,1-5.71-5.71V60.66A5.72,5.72,0,0,1,260.21,55h193.1A5.71,5.71,0,0,1,459,60.66V332.09A5.71,5.71,0,0,1,453.31,337.8ZM260.21,55.2a5.47,5.47,0,0,0-5.46,5.46V332.09a5.47,5.47,0,0,0,5.46,5.46h193.1a5.47,5.47,0,0,0,5.46-5.46V60.66a5.47,5.47,0,0,0-5.46-5.46Z" style="fill:#ebebeb"></path><circle cx="144.03" cy="90.75" r="27.79" style="fill:#fafafa"></circle><path d="M129.61,90.44a4.83,4.83,0,0,0-6.21-4.63A10.28,10.28,0,0,0,113.27,74.1a10.6,10.6,0,0,0-1.88.18A8.94,8.94,0,0,0,94.81,78.8h-.15a8.24,8.24,0,0,0,0,16.48h30.26A4.82,4.82,0,0,0,129.61,90.44Z" style="fill:#f0f0f0"></path><path d="M416.85,147.5a4.83,4.83,0,0,0-4.83-4.83,4.92,4.92,0,0,0-1.39.2,10.21,10.21,0,0,0-10.12-11.71,9.74,9.74,0,0,0-1.88.18,8.94,8.94,0,0,0-16.58,4.52h-.15a8.24,8.24,0,1,0,0,16.48h30.25A4.82,4.82,0,0,0,416.85,147.5Z" style="fill:#f0f0f0"></path><path d="M310,90.44a4.84,4.84,0,0,1,6.22-4.63A10.21,10.21,0,0,1,326.36,74.1a10.62,10.62,0,0,1,1.89.18,8.93,8.93,0,0,1,16.57,4.52H345a8.24,8.24,0,0,1,0,16.48H314.72A4.82,4.82,0,0,1,310,90.44Z" style="fill:#f0f0f0"></path><path d="M190.22,104.91a3,3,0,0,0-3-3,2.71,2.71,0,0,0-.86.13,7.14,7.14,0,0,0,.06-.93,6.36,6.36,0,0,0-6.36-6.36,6.45,6.45,0,0,0-1.17.11,5.55,5.55,0,0,0-10.3,2.81h-.1a5.13,5.13,0,0,0,0,10.25H187.3A3,3,0,0,0,190.22,104.91Z" style="fill:#f0f0f0"></path><path d="M280.64,168a3,3,0,0,1,3-3,2.71,2.71,0,0,1,.86.13,7.14,7.14,0,0,1-.07-.93,6.36,6.36,0,0,1,6.36-6.36,6.45,6.45,0,0,1,1.17.11,5.56,5.56,0,0,1,10.31,2.81h.09a5.13,5.13,0,1,1,0,10.25H283.55A3,3,0,0,1,280.64,168Z" style="fill:#f0f0f0"></path><path d="M43.36,214.61a9.2,9.2,0,0,1-.28-1.87c-.23-3.9-3.95-3.28-7.11-3.81-2.47-.41,4.07-6.65-.91-8.67a4.42,4.42,0,0,1-2.41-1.67,2.84,2.84,0,0,1,1.09-3.46,6.75,6.75,0,0,1,3.78-.95c.81-1,.15-2.47-.63-3.48s-1.75-2.16-1.46-3.4c.45-1.88,3.08-2,5-1.58.7-1.14.68-2.56,1-3.85s1.37-2.64,2.69-2.48,2,1.56,3.24,1.85c1.42.33,2.65-.92,3.76-1.86s3.06-1.54,3.83-.29c.46.74.19,1.78.66,2.51.83,1.27,2.79.48,4-.42s3.16-1.72,4-.47a5.38,5.38,0,0,1,.47,1.31c.58,1.66,2.38,2.49,3.78,3.56s2.51,3.18,1.32,4.49c-.58.64-1.61.9-1.9,1.72-.36,1,.68,1.94,1.51,2.64,1.38,1.17,1.62,4.67-.19,5.63-.77.41-1.89.53-2.08,1.37s.6,1.34,1.11,1.92a3.63,3.63,0,0,1-1.11,5.39c-.44.21-1,.38-1.14.84a1.78,1.78,0,0,0,.11,1,5.16,5.16,0,0,1,.17,1.95.9.9,0,0,1-.23.62,1,1,0,0,1-.58.16c-2.63.12-3.9-.81-5.5,1.47a1.8,1.8,0,0,1-.55.58,1.63,1.63,0,0,1-.72.18c-1.81.15-3-1-4.64-1.18-2.29-.3-2.78.88-4.8,1.83C45.5,217.7,44,216.78,43.36,214.61Z" style="fill:#ebebeb"></path><path d="M73.63,211.34a9.2,9.2,0,0,1-.28-1.87c-.23-3.9-3.95-3.28-7.11-3.81-2.47-.41,4.07-6.66-.91-8.67a4.38,4.38,0,0,1-2.41-1.68A2.83,2.83,0,0,1,64,191.86a6.75,6.75,0,0,1,3.78-1c.81-1,.15-2.47-.63-3.48s-1.75-2.16-1.46-3.4c.45-1.88,3.08-1.95,5-1.58.7-1.14.68-2.56,1-3.85s1.37-2.64,2.69-2.48,2,1.56,3.24,1.85c1.42.33,2.65-.92,3.76-1.87s3.07-1.53,3.83-.29c.46.75.19,1.78.67,2.52.82,1.26,2.79.48,4-.42s3.16-1.72,4-.47a5.31,5.31,0,0,1,.47,1.3c.58,1.67,2.38,2.5,3.78,3.56s2.51,3.19,1.32,4.5c-.58.64-1.61.9-1.9,1.72-.36,1,.68,1.94,1.51,2.64,1.38,1.17,1.63,4.67-.19,5.63-.77.4-1.89.53-2.08,1.37s.6,1.34,1.11,1.92a3.63,3.63,0,0,1-1.11,5.39c-.44.21-1,.38-1.13.84a1.69,1.69,0,0,0,.1,1,5.35,5.35,0,0,1,.18,2,1,1,0,0,1-.24.62,1,1,0,0,1-.58.16c-2.63.11-3.89-.82-5.5,1.47a1.7,1.7,0,0,1-.55.58,1.6,1.6,0,0,1-.72.18c-1.81.15-3-1-4.64-1.19-2.29-.29-2.78.89-4.8,1.84C75.77,214.43,74.23,213.51,73.63,211.34Z" style="fill:#ebebeb"></path><path d="M76.55,192.06a9.2,9.2,0,0,1-.28-1.87c-.23-3.9-4-3.28-7.12-3.81-2.47-.41,4.08-6.65-.91-8.67a4.34,4.34,0,0,1-2.4-1.67,2.83,2.83,0,0,1,1.09-3.46,6.73,6.73,0,0,1,3.78-1c.81-1,.15-2.47-.64-3.48s-1.75-2.16-1.45-3.4c.45-1.88,3.08-1.95,5-1.58.71-1.14.69-2.56,1-3.85s1.37-2.64,2.69-2.48,2,1.56,3.23,1.85c1.43.34,2.65-.92,3.77-1.86s3.06-1.53,3.83-.29c.46.74.18,1.78.66,2.51.83,1.27,2.79.48,4-.42s3.16-1.71,4-.47a5.38,5.38,0,0,1,.47,1.31c.58,1.66,2.38,2.49,3.78,3.56s2.51,3.19,1.32,4.49c-.58.64-1.61.9-1.9,1.72-.37,1,.68,1.94,1.51,2.64,1.37,1.17,1.62,4.68-.2,5.63-.76.41-1.88.53-2.07,1.37s.6,1.34,1.11,1.92a3.63,3.63,0,0,1-1.11,5.39c-.44.21-1,.38-1.14.84a1.69,1.69,0,0,0,.11,1,5.4,5.4,0,0,1,.17,2,.89.89,0,0,1-.23.61,1,1,0,0,1-.58.16c-2.63.12-3.9-.81-5.5,1.47a2.07,2.07,0,0,1-.55.59,1.78,1.78,0,0,1-.72.18c-1.81.14-3-1-4.64-1.19-2.3-.3-2.78.89-4.8,1.83C78.69,195.15,77.15,194.23,76.55,192.06Z" style="fill:#ebebeb"></path><path d="M96.49,201.67a9.31,9.31,0,0,1-.28-1.88c-.23-3.89-3.95-3.28-7.11-3.81-2.48-.41,4.07-6.65-.91-8.67a4.33,4.33,0,0,1-2.41-1.67,2.85,2.85,0,0,1,1.09-3.46,6.64,6.64,0,0,1,3.78-.94c.81-1,.15-2.48-.64-3.49s-1.75-2.15-1.45-3.4c.45-1.88,3.08-1.94,5-1.58.71-1.13.69-2.55,1-3.84s1.37-2.65,2.69-2.49,2,1.56,3.24,1.85c1.42.34,2.65-.92,3.76-1.86s3.06-1.53,3.83-.29c.46.74.19,1.78.66,2.51.83,1.27,2.79.48,4-.42s3.16-1.71,4-.46a5.17,5.17,0,0,1,.47,1.3c.58,1.66,2.38,2.49,3.78,3.56s2.51,3.19,1.32,4.49c-.58.64-1.61.9-1.9,1.72-.36,1,.68,1.94,1.51,2.64,1.37,1.17,1.62,4.68-.2,5.64-.76.4-1.88.52-2.07,1.37s.6,1.34,1.11,1.92a3.62,3.62,0,0,1-1.11,5.38c-.44.21-1,.38-1.14.84a1.73,1.73,0,0,0,.11,1,5.12,5.12,0,0,1,.17,1.95.89.89,0,0,1-.23.61,1,1,0,0,1-.58.16c-2.63.12-3.9-.81-5.5,1.48a2,2,0,0,1-.55.58,1.78,1.78,0,0,1-.72.18c-1.81.15-3-1-4.64-1.19-2.29-.29-2.78.89-4.8,1.84C98.63,204.75,97.09,203.83,96.49,201.67Z" style="fill:#ebebeb"></path><path d="M116.64,197.23a9.2,9.2,0,0,1-.28-1.88c-.23-3.89-4-3.27-7.11-3.8-2.47-.41,4.07-6.66-.91-8.67a4.38,4.38,0,0,1-2.41-1.68,2.83,2.83,0,0,1,1.09-3.45,6.75,6.75,0,0,1,3.78-.95c.81-1,.15-2.47-.63-3.48s-1.75-2.16-1.45-3.4c.45-1.88,3.07-1.95,5-1.58.7-1.14.69-2.56,1-3.85s1.36-2.64,2.69-2.48,2,1.56,3.23,1.85c1.42.33,2.65-.92,3.76-1.87s3.07-1.53,3.83-.29c.46.75.19,1.78.67,2.52.82,1.26,2.79.48,4-.42s3.16-1.72,4-.47a5.33,5.33,0,0,1,.48,1.3c.57,1.67,2.37,2.5,3.77,3.56s2.51,3.19,1.33,4.49c-.59.65-1.62.91-1.91,1.73-.36,1,.68,1.94,1.51,2.64,1.38,1.17,1.63,4.67-.19,5.63-.77.4-1.89.53-2.08,1.37s.6,1.34,1.11,1.92a3.62,3.62,0,0,1-1.11,5.39c-.43.21-1,.38-1.13.83a1.71,1.71,0,0,0,.1,1,5.35,5.35,0,0,1,.18,1.95.86.86,0,0,1-.24.61.9.9,0,0,1-.58.17c-2.63.11-3.89-.82-5.5,1.47a1.7,1.7,0,0,1-.55.58,1.6,1.6,0,0,1-.72.18c-1.81.15-3-1-4.64-1.19-2.29-.29-2.78.89-4.79,1.84C118.78,200.31,117.24,199.39,116.64,197.23Z" style="fill:#ebebeb"></path><path d="M116.91,218.79a7.67,7.67,0,0,1-.23-1.48c-.18-3.07-3.11-2.58-5.6-3-1.94-.32,3.21-5.24-.71-6.82a3.53,3.53,0,0,1-1.9-1.32,2.23,2.23,0,0,1,.86-2.72,5.28,5.28,0,0,1,3-.75c.64-.78.12-1.95-.5-2.74s-1.38-1.7-1.15-2.68c.36-1.48,2.43-1.53,3.92-1.24a10.93,10.93,0,0,0,.81-3c.27-1,1.07-2.08,2.12-1.95s1.58,1.22,2.54,1.45c1.12.26,2.09-.72,3-1.47s2.41-1.2,3-.22c.37.58.15,1.4.52,2,.66,1,2.2.38,3.16-.33s2.49-1.35,3.16-.36a4,4,0,0,1,.38,1c.45,1.31,1.87,2,3,2.8s2,2.52,1,3.54c-.46.51-1.27.71-1.5,1.36-.28.8.54,1.52,1.19,2.08,1.09.92,1.28,3.68-.15,4.43-.6.32-1.48.42-1.63,1.08s.47,1.06.87,1.51a2.85,2.85,0,0,1-.87,4.24c-.35.17-.77.3-.9.66a1.38,1.38,0,0,0,.08.8,4.23,4.23,0,0,1,.14,1.54.63.63,0,0,1-.19.48.7.7,0,0,1-.45.13c-2.07.09-3.07-.64-4.33,1.16a1.57,1.57,0,0,1-.43.46,1.41,1.41,0,0,1-.57.14c-1.43.12-2.36-.77-3.66-.94-1.8-.23-2.18.7-3.77,1.45C118.59,221.22,117.38,220.49,116.91,218.79Z" style="fill:#ebebeb"></path><path d="M128.2,211.34a9.2,9.2,0,0,1-.28-1.87c-.24-3.9-4-3.28-7.12-3.81-2.47-.41,4.08-6.66-.91-8.67a4.36,4.36,0,0,1-2.4-1.68,2.83,2.83,0,0,1,1.08-3.45,6.78,6.78,0,0,1,3.79-1c.81-1,.15-2.47-.64-3.48s-1.75-2.16-1.45-3.4c.45-1.88,3.08-1.95,5-1.58.7-1.14.69-2.56,1-3.85s1.37-2.64,2.69-2.48,2,1.56,3.23,1.85c1.42.33,2.65-.92,3.77-1.87s3.06-1.53,3.83-.29c.46.75.18,1.78.66,2.52.83,1.26,2.79.48,4-.42s3.16-1.72,4-.47a5.31,5.31,0,0,1,.47,1.3c.58,1.67,2.38,2.5,3.78,3.56s2.51,3.19,1.32,4.5c-.58.64-1.61.9-1.9,1.72-.37,1,.68,1.94,1.51,2.64,1.37,1.17,1.62,4.67-.2,5.63-.76.4-1.88.53-2.07,1.37s.6,1.34,1.11,1.92a3.63,3.63,0,0,1-1.11,5.39c-.44.21-1,.38-1.14.84a1.69,1.69,0,0,0,.11,1,5.58,5.58,0,0,1,.17,2,.9.9,0,0,1-.24.62.93.93,0,0,1-.57.16c-2.63.11-3.9-.82-5.5,1.47a1.91,1.91,0,0,1-.55.58,1.67,1.67,0,0,1-.73.18c-1.8.15-3-1-4.63-1.19-2.3-.29-2.78.89-4.8,1.84C130.34,214.43,128.8,213.51,128.2,211.34Z" style="fill:#ebebeb"></path><path d="M96.49,178a9.2,9.2,0,0,1-.28-1.87c-.23-3.9-3.95-3.28-7.11-3.81-2.48-.41,4.07-6.65-.91-8.67a4.33,4.33,0,0,1-2.41-1.67,2.84,2.84,0,0,1,1.09-3.46,6.73,6.73,0,0,1,3.78-.95c.81-1,.15-2.47-.64-3.48s-1.75-2.16-1.45-3.4c.45-1.88,3.08-1.95,5-1.58.71-1.14.69-2.56,1-3.85s1.37-2.64,2.69-2.48,2,1.56,3.24,1.85c1.42.33,2.65-.92,3.76-1.86s3.06-1.53,3.83-.29c.46.74.19,1.78.66,2.51.83,1.27,2.79.48,4-.42s3.16-1.71,4-.47a5.38,5.38,0,0,1,.47,1.31c.58,1.66,2.38,2.49,3.78,3.56s2.51,3.18,1.32,4.49c-.58.64-1.61.9-1.9,1.72-.36,1,.68,1.94,1.51,2.64,1.37,1.17,1.62,4.68-.2,5.63-.76.41-1.88.53-2.07,1.37s.6,1.34,1.11,1.92a3.63,3.63,0,0,1-1.11,5.39c-.44.21-1,.38-1.14.84a1.69,1.69,0,0,0,.11,1,5.16,5.16,0,0,1,.17,1.95.9.9,0,0,1-.23.62,1,1,0,0,1-.58.16c-2.63.12-3.9-.81-5.5,1.47a1.91,1.91,0,0,1-.55.58,1.79,1.79,0,0,1-.72.19c-1.81.14-3-1-4.64-1.19-2.29-.3-2.78.89-4.8,1.83C98.63,181,97.09,180.12,96.49,178Z" style="fill:#ebebeb"></path><path d="M70.6,179.28a9.2,9.2,0,0,1-.28-1.88c-.23-3.89-3.95-3.28-7.11-3.81-2.48-.41,4.07-6.65-.91-8.66a4.4,4.4,0,0,1-2.41-1.68A2.83,2.83,0,0,1,61,159.8a6.57,6.57,0,0,1,3.78-1c.81-1,.15-2.48-.64-3.49s-1.75-2.15-1.45-3.4c.45-1.88,3.08-1.94,5-1.58.71-1.13.69-2.55,1-3.84s1.37-2.65,2.69-2.48,2,1.56,3.23,1.84c1.43.34,2.66-.92,3.77-1.86s3.06-1.53,3.83-.29c.46.74.19,1.78.66,2.51.83,1.27,2.79.48,4-.42s3.16-1.71,4-.46a5.17,5.17,0,0,1,.47,1.3c.58,1.66,2.38,2.49,3.78,3.56s2.51,3.19,1.32,4.49c-.58.64-1.61.9-1.9,1.72-.36,1,.68,1.94,1.51,2.64,1.37,1.18,1.62,4.68-.2,5.64-.76.4-1.88.52-2.07,1.37s.6,1.34,1.11,1.92a3.62,3.62,0,0,1-1.11,5.38c-.44.21-1,.38-1.14.84a1.73,1.73,0,0,0,.11,1,5.14,5.14,0,0,1,.17,2,.89.89,0,0,1-.23.61,1,1,0,0,1-.58.16c-2.63.12-3.9-.81-5.5,1.48a2,2,0,0,1-.55.58,1.78,1.78,0,0,1-.72.18c-1.81.15-3-1-4.64-1.19-2.29-.29-2.78.89-4.8,1.84C72.74,182.36,71.2,181.44,70.6,179.28Z" style="fill:#ebebeb"></path><path d="M54.88,189.87a8.53,8.53,0,0,1-.29-1.87c-.23-3.9-4-3.28-7.11-3.81-2.47-.41,4.07-6.66-.91-8.67a4.36,4.36,0,0,1-2.4-1.67,2.82,2.82,0,0,1,1.08-3.46,6.75,6.75,0,0,1,3.78-.95c.82-1,.15-2.47-.63-3.48s-1.75-2.16-1.45-3.4c.45-1.88,3.07-1.95,5-1.58.7-1.14.69-2.56,1-3.85s1.36-2.64,2.69-2.48,2,1.56,3.23,1.85c1.42.33,2.65-.92,3.76-1.87s3.07-1.53,3.84-.28c.45.74.18,1.77.66,2.51.82,1.26,2.79.48,4-.42s3.16-1.72,4-.47a5.41,5.41,0,0,1,.48,1.31c.57,1.66,2.37,2.49,3.77,3.55s2.51,3.19,1.33,4.5c-.59.64-1.62.9-1.91,1.72-.36,1,.68,1.94,1.51,2.64,1.38,1.17,1.63,4.67-.19,5.63-.77.4-1.89.53-2.07,1.37s.59,1.34,1.1,1.92A3.61,3.61,0,0,1,78.06,184c-.43.21-1,.38-1.13.84a1.69,1.69,0,0,0,.1,1,5.37,5.37,0,0,1,.18,2,.9.9,0,0,1-.24.62.94.94,0,0,1-.58.16c-2.63.12-3.89-.81-5.5,1.47a1.77,1.77,0,0,1-.54.58,1.67,1.67,0,0,1-.73.18c-1.81.15-3-1-4.64-1.18-2.29-.3-2.78.88-4.79,1.83C57,193,55.47,192,54.88,189.87Z" style="fill:#ebebeb"></path><path d="M59.64,203.26s6.58,9.3,8.85,12.25S82.09,236.83,83.64,249c.16,1.29.33,2.41.48,3.39-4.87,32.19-4.11,91.09-3.94,101.17H95.64c.14-11.37,1.45-115.31,1.93-118.48.52-3.36,7-16.15,17-21.4S133.13,191,133.13,191H130s-5.9,10.66-14.29,16.55a31.55,31.55,0,0,1-3.78,2.24A53.67,53.67,0,0,0,108.55,191l-1.72,1.59c2.32,9.49,2,15.57,1.31,19.06a34.5,34.5,0,0,0-8.67,5.81c-8.71-11.32-13.6-37.2-13.6-37.2l-2.23,1.21a130.75,130.75,0,0,0,2.88,15.88c1.63,6.7,6.43,19.31,8.66,25a59.75,59.75,0,0,0-6.58,12.34,4.56,4.56,0,0,0-.84-1c-5.67-5.12-16.32-29.34-16.32-29.34C68.86,198.77,72.8,184,72.8,184h-3l-1.33,12.92L61,188.75l-1.36,1.13,7.94,10.21L71.66,213,61,201.22Z" style="fill:#e6e6e6"></path><path d="M458.76,212.41a8.63,8.63,0,0,0,.29-1.88c.23-3.9,3.95-3.28,7.11-3.81,2.47-.41-4.07-6.65.91-8.67a4.31,4.31,0,0,0,2.4-1.67,2.83,2.83,0,0,0-1.08-3.46,6.66,6.66,0,0,0-3.78-.94c-.82-1-.15-2.48.63-3.49s1.75-2.15,1.45-3.4c-.45-1.88-3.07-1.94-5-1.58-.7-1.13-.69-2.55-1-3.84s-1.36-2.65-2.69-2.49-2,1.56-3.23,1.85c-1.42.34-2.65-.92-3.76-1.86s-3.07-1.53-3.83-.29c-.46.74-.19,1.78-.67,2.51-.82,1.27-2.79.48-4-.42s-3.16-1.71-4-.46a5.19,5.19,0,0,0-.48,1.3c-.57,1.66-2.37,2.49-3.77,3.56s-2.51,3.19-1.33,4.49c.59.64,1.62.9,1.91,1.72.36,1-.68,1.94-1.51,2.64-1.38,1.17-1.63,4.68.19,5.64.77.4,1.89.52,2.07,1.36s-.59,1.34-1.1,1.93a3.6,3.6,0,0,0,1.11,5.38c.43.21,1,.38,1.13.84a1.72,1.72,0,0,1-.1,1,5.33,5.33,0,0,0-.18,2,.9.9,0,0,0,.24.61.94.94,0,0,0,.58.16c2.63.12,3.89-.81,5.5,1.48a1.79,1.79,0,0,0,.55.58,1.74,1.74,0,0,0,.72.18c1.81.15,3-1,4.64-1.19,2.29-.29,2.78.89,4.79,1.84C456.63,215.49,458.17,214.57,458.76,212.41Z" style="fill:#ebebeb"></path><path d="M428.49,209.14a8.63,8.63,0,0,0,.29-1.88c.23-3.9,4-3.28,7.11-3.81,2.47-.41-4.07-6.65.91-8.67a4.31,4.31,0,0,0,2.4-1.67,2.83,2.83,0,0,0-1.08-3.46,6.75,6.75,0,0,0-3.78-1c-.82-1-.16-2.47.63-3.48s1.75-2.16,1.45-3.4c-.45-1.88-3.07-1.95-5-1.58-.7-1.14-.69-2.55-1-3.84s-1.36-2.65-2.69-2.49-2,1.56-3.23,1.85c-1.42.34-2.65-.92-3.76-1.86s-3.07-1.53-3.84-.29c-.46.74-.18,1.78-.66,2.51-.83,1.27-2.79.48-4-.42s-3.16-1.71-4-.46a5.19,5.19,0,0,0-.48,1.3c-.57,1.66-2.37,2.49-3.77,3.56s-2.51,3.19-1.33,4.49c.59.64,1.62.9,1.91,1.72.36,1-.69,1.94-1.51,2.64-1.38,1.17-1.63,4.68.19,5.64.77.4,1.89.52,2.07,1.36s-.59,1.34-1.1,1.93a3.6,3.6,0,0,0,1.11,5.38c.43.21,1,.38,1.13.84a1.72,1.72,0,0,1-.1,1,5.33,5.33,0,0,0-.18,1.95.9.9,0,0,0,.24.61.94.94,0,0,0,.58.16c2.62.12,3.89-.81,5.5,1.47a1.91,1.91,0,0,0,.54.59,1.83,1.83,0,0,0,.73.18c1.81.15,3-1,4.64-1.19,2.29-.29,2.77.89,4.79,1.84C426.36,212.22,427.9,211.3,428.49,209.14Z" style="fill:#ebebeb"></path><path d="M425.58,189.86a9.2,9.2,0,0,0,.28-1.88c.23-3.89,3.95-3.28,7.11-3.81,2.47-.41-4.07-6.65.91-8.66a4.43,4.43,0,0,0,2.41-1.68,2.83,2.83,0,0,0-1.09-3.45,6.59,6.59,0,0,0-3.78-.95c-.81-1-.15-2.48.63-3.49s1.75-2.15,1.46-3.4c-.45-1.88-3.08-1.94-5-1.58-.7-1.13-.68-2.55-1-3.84s-1.37-2.65-2.69-2.49-2,1.57-3.24,1.85c-1.42.34-2.65-.92-3.76-1.86s-3.07-1.53-3.83-.29c-.46.74-.19,1.78-.67,2.51-.82,1.27-2.79.48-4-.42s-3.16-1.71-4-.46a5.17,5.17,0,0,0-.47,1.3c-.58,1.66-2.38,2.49-3.78,3.56s-2.51,3.19-1.32,4.49c.58.64,1.61.9,1.9,1.72.36,1-.68,1.94-1.51,2.64-1.38,1.18-1.63,4.68.19,5.64.77.4,1.89.52,2.08,1.37s-.6,1.34-1.11,1.92a3.62,3.62,0,0,0,1.11,5.38c.44.21,1,.38,1.13.84a1.72,1.72,0,0,1-.1,1,5.33,5.33,0,0,0-.18,1.95,1,1,0,0,0,.24.61,1,1,0,0,0,.58.16c2.63.12,3.9-.81,5.5,1.48a1.9,1.9,0,0,0,.55.58,1.74,1.74,0,0,0,.72.18c1.81.15,3-1,4.64-1.19,2.29-.29,2.78.89,4.8,1.84C423.44,192.94,425,192,425.58,189.86Z" style="fill:#ebebeb"></path><path d="M405.64,199.46a9.2,9.2,0,0,0,.28-1.88c.23-3.89,3.95-3.27,7.11-3.8,2.47-.42-4.07-6.66.91-8.67a4.43,4.43,0,0,0,2.41-1.68,2.83,2.83,0,0,0-1.09-3.45,6.67,6.67,0,0,0-3.78-.95c-.81-1-.15-2.48.63-3.48s1.75-2.16,1.45-3.41c-.45-1.87-3.07-1.94-5-1.58-.7-1.13-.68-2.55-1-3.84s-1.37-2.64-2.69-2.48-2,1.56-3.24,1.85c-1.42.33-2.65-.93-3.76-1.87s-3.07-1.53-3.83-.29c-.46.75-.19,1.78-.67,2.51-.82,1.27-2.79.48-4-.41s-3.16-1.72-4-.47a5.17,5.17,0,0,0-.47,1.3c-.58,1.67-2.38,2.49-3.78,3.56s-2.51,3.19-1.33,4.49c.59.64,1.62.91,1.91,1.72.36,1-.68,1.94-1.51,2.65-1.38,1.17-1.63,4.67.19,5.63.77.4,1.89.53,2.08,1.37s-.6,1.34-1.11,1.92a3.62,3.62,0,0,0,1.11,5.39c.43.2,1,.38,1.13.83a1.71,1.71,0,0,1-.1,1,5.35,5.35,0,0,0-.18,1.95.93.93,0,0,0,.24.61.9.9,0,0,0,.58.17c2.63.11,3.89-.82,5.5,1.47a1.7,1.7,0,0,0,.55.58,1.6,1.6,0,0,0,.72.18c1.81.15,3-1,4.64-1.19,2.29-.29,2.78.89,4.8,1.84C403.5,202.54,405,201.62,405.64,199.46Z" style="fill:#ebebeb"></path><path d="M385.48,195a10.17,10.17,0,0,0,.29-1.88c.23-3.9,4-3.28,7.11-3.81,2.47-.41-4.07-6.65.91-8.67a4.34,4.34,0,0,0,2.4-1.67,2.82,2.82,0,0,0-1.08-3.46,6.75,6.75,0,0,0-3.78-.95c-.82-1-.16-2.47.63-3.48s1.75-2.16,1.45-3.4c-.45-1.88-3.07-2-5-1.58-.7-1.14-.69-2.56-1-3.85s-1.36-2.64-2.69-2.48-2,1.56-3.23,1.85c-1.42.34-2.65-.92-3.77-1.86s-3.06-1.53-3.83-.29c-.46.74-.18,1.78-.66,2.51-.83,1.27-2.79.48-4-.42s-3.16-1.71-4-.47a5.38,5.38,0,0,0-.47,1.31c-.57,1.66-2.37,2.49-3.77,3.56s-2.51,3.19-1.33,4.49c.59.64,1.61.9,1.91,1.72.36,1-.69,1.94-1.51,2.64-1.38,1.17-1.63,4.68.19,5.63.76.41,1.88.53,2.07,1.37s-.59,1.34-1.1,1.92a3.62,3.62,0,0,0,1.1,5.39c.44.21,1,.38,1.14.84a1.73,1.73,0,0,1-.1,1,5.33,5.33,0,0,0-.18,2,.9.9,0,0,0,.24.61.93.93,0,0,0,.57.16c2.63.12,3.9-.81,5.51,1.47a1.91,1.91,0,0,0,.54.59,1.83,1.83,0,0,0,.73.18c1.81.15,3-1,4.64-1.19,2.29-.3,2.77.89,4.79,1.84C383.35,198.11,384.89,197.19,385.48,195Z" style="fill:#ebebeb"></path><path d="M385.22,216.58a7,7,0,0,0,.22-1.48c.19-3.06,3.11-2.58,5.6-3,1.95-.33-3.2-5.24.72-6.83a3.42,3.42,0,0,0,1.89-1.32,2.22,2.22,0,0,0-.85-2.72,5.28,5.28,0,0,0-3-.74c-.64-.78-.12-1.95.5-2.75s1.38-1.7,1.14-2.68c-.35-1.47-2.42-1.53-3.91-1.24a10.84,10.84,0,0,1-.81-3c-.27-1-1.08-2.08-2.12-2s-1.58,1.23-2.55,1.45-2.08-.72-3-1.46-2.41-1.21-3-.23c-.36.58-.14,1.4-.52,2-.65,1-2.19.37-3.15-.33s-2.49-1.35-3.17-.37a4.35,4.35,0,0,0-.37,1c-.45,1.31-1.87,2-3,2.8s-2,2.51-1.05,3.53c.47.51,1.27.71,1.5,1.36s-.53,1.53-1.18,2.08c-1.09.92-1.28,3.68.15,4.44.6.31,1.48.41,1.63,1.07s-.47,1.06-.87,1.52A2.85,2.85,0,0,0,367,212c.35.16.77.3.9.66a1.33,1.33,0,0,1-.09.8,4.17,4.17,0,0,0-.13,1.53.71.71,0,0,0,.18.49.72.72,0,0,0,.46.12c2.07.1,3.06-.64,4.33,1.16a1.36,1.36,0,0,0,.43.46,1.23,1.23,0,0,0,.57.14c1.42.12,2.35-.77,3.65-.93,1.81-.23,2.19.7,3.78,1.44C383.54,219,384.75,218.29,385.22,216.58Z" style="fill:#ebebeb"></path><path d="M373.93,209.14a9.31,9.31,0,0,0,.28-1.88c.23-3.9,4-3.28,7.11-3.81,2.47-.41-4.07-6.65.91-8.67a4.37,4.37,0,0,0,2.41-1.67,2.85,2.85,0,0,0-1.09-3.46,6.75,6.75,0,0,0-3.78-1c-.81-1-.15-2.47.63-3.48s1.75-2.16,1.46-3.4c-.45-1.88-3.08-1.95-5-1.58-.7-1.14-.68-2.55-1-3.84s-1.37-2.65-2.69-2.49-2,1.56-3.24,1.85c-1.42.34-2.65-.92-3.76-1.86s-3.06-1.53-3.83-.29c-.46.74-.19,1.78-.66,2.51-.83,1.27-2.79.48-4-.42s-3.16-1.71-4-.46a5.17,5.17,0,0,0-.47,1.3c-.58,1.66-2.38,2.49-3.78,3.56s-2.51,3.19-1.32,4.49c.58.64,1.61.9,1.9,1.72.36,1-.68,1.94-1.51,2.64-1.38,1.17-1.63,4.68.19,5.64.77.4,1.89.52,2.08,1.36s-.6,1.34-1.11,1.93a3.62,3.62,0,0,0,1.11,5.38c.44.21,1,.38,1.13.84a1.72,1.72,0,0,1-.1,1,5.12,5.12,0,0,0-.17,1.95.89.89,0,0,0,.23.61,1,1,0,0,0,.58.16c2.63.12,3.9-.81,5.5,1.47a1.94,1.94,0,0,0,.55.59,1.74,1.74,0,0,0,.72.18c1.81.15,3-1,4.64-1.19,2.29-.29,2.78.89,4.8,1.84C371.79,212.22,373.33,211.3,373.93,209.14Z" style="fill:#ebebeb"></path><path d="M405.64,175.75a9.31,9.31,0,0,0,.28-1.88c.23-3.89,3.95-3.28,7.11-3.81,2.47-.41-4.07-6.65.91-8.66a4.43,4.43,0,0,0,2.41-1.68,2.85,2.85,0,0,0-1.09-3.46,6.66,6.66,0,0,0-3.78-.94c-.81-1-.15-2.48.63-3.49s1.75-2.15,1.45-3.4c-.45-1.88-3.07-1.94-5-1.58-.7-1.13-.68-2.55-1-3.84s-1.37-2.65-2.69-2.49-2,1.56-3.24,1.85c-1.42.34-2.65-.92-3.76-1.86s-3.07-1.53-3.83-.29c-.46.74-.19,1.78-.67,2.51-.82,1.27-2.79.48-4-.42s-3.16-1.71-4-.46a5.17,5.17,0,0,0-.47,1.3c-.58,1.66-2.38,2.49-3.78,3.56s-2.51,3.19-1.33,4.49c.59.64,1.62.9,1.91,1.72.36,1-.68,1.94-1.51,2.64-1.38,1.17-1.63,4.68.19,5.64.77.4,1.89.52,2.08,1.37s-.6,1.34-1.11,1.92a3.61,3.61,0,0,0,1.11,5.38c.43.21,1,.38,1.13.84a1.72,1.72,0,0,1-.1,1,5.33,5.33,0,0,0-.18,2,1,1,0,0,0,.24.61,1,1,0,0,0,.58.16c2.63.12,3.89-.81,5.5,1.48a1.79,1.79,0,0,0,.55.58,1.74,1.74,0,0,0,.72.18c1.81.15,3-1,4.64-1.19,2.29-.29,2.78.89,4.8,1.84C403.5,178.83,405,177.91,405.64,175.75Z" style="fill:#ebebeb"></path><path d="M431.53,177.07a9.2,9.2,0,0,0,.28-1.88c.23-3.89,3.95-3.27,7.11-3.8,2.47-.41-4.07-6.66.91-8.67a4.38,4.38,0,0,0,2.41-1.68,2.83,2.83,0,0,0-1.09-3.45,6.75,6.75,0,0,0-3.78-1c-.81-1-.15-2.47.63-3.48s1.75-2.16,1.45-3.4c-.45-1.88-3.07-1.95-5-1.59-.7-1.13-.68-2.55-1-3.84s-1.37-2.64-2.69-2.48-2,1.56-3.24,1.85c-1.42.33-2.65-.92-3.76-1.87s-3.07-1.53-3.83-.29c-.46.75-.19,1.78-.67,2.51-.82,1.27-2.79.49-4-.41s-3.16-1.72-4-.47a5.31,5.31,0,0,0-.47,1.3c-.58,1.67-2.38,2.5-3.78,3.56s-2.51,3.19-1.33,4.49c.59.65,1.62.91,1.91,1.72.36,1-.68,1.94-1.51,2.65-1.38,1.17-1.63,4.67.19,5.63.77.4,1.89.53,2.08,1.37s-.6,1.34-1.11,1.92a3.62,3.62,0,0,0,1.11,5.39c.43.21,1,.38,1.13.83a1.71,1.71,0,0,1-.1,1,5.35,5.35,0,0,0-.18,1.95.72.72,0,0,0,.82.78c2.63.11,3.89-.82,5.5,1.47a1.7,1.7,0,0,0,.55.58,1.6,1.6,0,0,0,.72.18c1.81.15,3-1,4.64-1.19,2.29-.29,2.78.89,4.8,1.84C429.39,180.15,430.93,179.23,431.53,177.07Z" style="fill:#ebebeb"></path><path d="M447.25,187.67a10,10,0,0,0,.29-1.88c.23-3.9,3.94-3.28,7.11-3.81,2.47-.41-4.07-6.65.91-8.67a4.34,4.34,0,0,0,2.4-1.67,2.84,2.84,0,0,0-1.08-3.46,6.69,6.69,0,0,0-3.79-.94c-.81-1-.15-2.48.64-3.49s1.75-2.16,1.45-3.4c-.45-1.88-3.07-1.95-5-1.58-.7-1.14-.69-2.55-1-3.84s-1.36-2.65-2.69-2.49-2,1.56-3.23,1.85c-1.42.34-2.65-.92-3.77-1.86s-3.06-1.53-3.83-.29c-.46.74-.18,1.78-.66,2.51-.83,1.27-2.79.48-4-.42s-3.16-1.71-4-.46a5.17,5.17,0,0,0-.47,1.3c-.58,1.66-2.37,2.49-3.77,3.56s-2.51,3.19-1.33,4.49c.59.64,1.61.9,1.9,1.72.37,1-.68,1.94-1.5,2.64-1.38,1.17-1.63,4.68.19,5.64.76.4,1.88.52,2.07,1.36s-.6,1.34-1.1,1.93a3.61,3.61,0,0,0,1.1,5.38c.44.21,1,.38,1.14.84a1.65,1.65,0,0,1-.11,1,5.55,5.55,0,0,0-.17,1.95.9.9,0,0,0,.24.61.93.93,0,0,0,.57.16c2.63.12,3.9-.81,5.5,1.48a2.17,2.17,0,0,0,.55.58,1.83,1.83,0,0,0,.73.18c1.8.15,3-1,4.64-1.19,2.29-.29,2.77.89,4.79,1.84C445.12,190.75,446.66,189.83,447.25,187.67Z" style="fill:#ebebeb"></path><path d="M442.48,201.06s-6.57,9.3-8.84,12.24S420,234.62,418.49,246.77c-.17,1.3-.33,2.41-.49,3.39,4.88,32.19,4.12,91.09,3.94,101.18H406.49C406.35,340,405,236,404.55,232.85c-.51-3.36-7-16.14-16.95-21.4S369,188.81,369,188.81h3.18s5.9,10.66,14.29,16.56a32.15,32.15,0,0,0,3.77,2.23,53.56,53.56,0,0,1,3.34-18.79l1.72,1.59c-2.32,9.49-2,15.57-1.31,19.06a35,35,0,0,1,8.67,5.81c8.71-11.32,13.6-37.2,13.6-37.2l2.23,1.22a132.83,132.83,0,0,1-2.88,15.87c-1.63,6.7-6.43,19.31-8.66,25a59.3,59.3,0,0,1,6.57,12.34,5.43,5.43,0,0,1,.84-1c5.67-5.13,16.33-29.35,16.33-29.35,2.58-5.63-1.36-20.41-1.36-20.41h3l1.33,12.93,7.48-8.17,1.36,1.14-7.93,10.2-4.09,12.93L441.12,199Z" style="fill:#e6e6e6"></path><path d="M314.36,120.16s.79-2.67-3.61-5c0,0-1,.8-4.45,1.54s2.33,6.08,5.69,6.33S314.36,120.16,314.36,120.16Z" style="fill:#e6e6e6"></path><path d="M313.62,120.36s.83-4.29,8.21-5.34,10.35-1.47,10.35-1.47.78,7.86-9.51,9.18l9.51-.89s-.86,2.62-4.71,3.76l-5.05-1s-8.73,2.26-12.66-1.48a5.47,5.47,0,0,0-3.86-1.24,2.54,2.54,0,0,1,1.29-.94s-.45-1.19.35-1.73C310.16,117.39,311.92,121.15,313.62,120.36Z" style="fill:#f0f0f0"></path><path d="M259,99.73s.45-1.52-2-2.83a6.79,6.79,0,0,1-2.52.87c-2,.42,1.32,3.44,3.22,3.58A1.17,1.17,0,0,0,259,99.73Z" style="fill:#e6e6e6"></path><path d="M258.55,99.84s.47-2.43,4.65-3l5.86-.83s.44,4.45-5.38,5.2l5.38-.5a3.81,3.81,0,0,1-2.67,2.12l-2.85-.58s-5,1.27-7.17-.84a3.1,3.1,0,0,0-2.19-.7,1.45,1.45,0,0,1,.74-.54s-.26-.67.19-1C256.6,98.16,257.59,100.28,258.55,99.84Z" style="fill:#f0f0f0"></path><path d="M221.11,126.85s.31-1.06-1.44-2a4.77,4.77,0,0,1-1.76.6c-1.38.3.92,2.42,2.25,2.52A.83.83,0,0,0,221.11,126.85Z" style="fill:#e6e6e6"></path><path d="M220.81,126.93s.33-1.7,3.26-2.12l4.11-.59s.31,3.13-3.77,3.65l3.77-.35a2.66,2.66,0,0,1-1.87,1.49l-2-.41s-3.47.89-5-.59a2.13,2.13,0,0,0-1.53-.49,1,1,0,0,1,.51-.38s-.18-.47.14-.68C219.44,125.75,220.14,127.24,220.81,126.93Z" style="fill:#f0f0f0"></path><path d="M168.91,382.3c.66-2.49,3.68-15.63-4.91-18.46-9.5-3.13-15.14-10.49-14.82-18.81s-9.68-16.42-17.18-8.62-6.5-6-16.5-9.35S97,331.84,99.76,339.27s-7.13,12.08-19,5.76S56,350.21,58.5,359.21s.45,10-7,7S31,371.5,35.16,382.3Z" style="fill:#ebebeb"></path><path d="M469.67,382.3H366.89c-2.53-5,1.48-11.71,5.89-12.59,5-1,10-9.8,10.26-15.4s9.24-22.83,23.24-12.19,9.74,1.56,19.87-1.43,16.52,5.62,12.07,12.07c0,0,10.17-2.55,14.37,6.95s0,15.4,0,15.4S467,374.69,469.67,382.3Z" style="fill:#ebebeb"></path></g><g id="background-simple"><path d="M94.61,98.28C103.69,86.8,120.22,83,134.54,86.15s26.93,12.31,37.5,22.67,19.71,22.12,30.43,32.33c12.95,12.32,31.73,22.69,48.08,15.46C263.22,151,269.44,137,276.7,125.22,294.44,96.32,327.25,74.7,361,78.4c63.79,7,74.08,81.65,55.4,130.57-7.34,19.21-17.59,37.16-26.53,55.69-7.76,16.08-14.62,34.73-8.15,51.38,6.18,15.89,23.63,27.12,24.5,44.15.6,11.69-7.54,22.57-17.93,28s-22.58,6.15-34.25,5.23c-54.79-4.32-103.91-42.36-158.85-40.62-17.12.54-33.85,5-50.73,7.92s-34.6,4.33-50.86-1.09-30.75-19-32.82-36c-2.49-20.43,12.57-38.5,27.48-52.69S120,241.66,122.7,221.26c2-14.56-3.89-29-11.12-41.85s-16-24.85-21-38.71-5.24-30.46,3.73-42.1Z" style="fill:#407BFF"></path><path d="M94.61,98.28C103.69,86.8,120.22,83,134.54,86.15s26.93,12.31,37.5,22.67,19.71,22.12,30.43,32.33c12.95,12.32,31.73,22.69,48.08,15.46C263.22,151,269.44,137,276.7,125.22,294.44,96.32,327.25,74.7,361,78.4c63.79,7,74.08,81.65,55.4,130.57-7.34,19.21-17.59,37.16-26.53,55.69-7.76,16.08-14.62,34.73-8.15,51.38,6.18,15.89,23.63,27.12,24.5,44.15.6,11.69-7.54,22.57-17.93,28s-22.58,6.15-34.25,5.23c-54.79-4.32-103.91-42.36-158.85-40.62-17.12.54-33.85,5-50.73,7.92s-34.6,4.33-50.86-1.09-30.75-19-32.82-36c-2.49-20.43,12.57-38.5,27.48-52.69S120,241.66,122.7,221.26c2-14.56-3.89-29-11.12-41.85s-16-24.85-21-38.71-5.24-30.46,3.73-42.1Z" style="fill:#fff;opacity:0.9;isolation:isolate"></path></g><g id="Shadow"><ellipse id="path" cx="250" cy="416.24" rx="193.89" ry="11.32" style="fill:#f5f5f5"></ellipse></g><g id="plant-2"><path d="M402.87,350.72c.19,1.3-3.36,2.16-6.25,2.65.24,2.37,1.82,4.77,4,7,2.74-1.55,6.66-3.6,7.39-3.1s-3.23,3.14-5.74,4.67a50.94,50.94,0,0,0,5.69,4.31c1.23-1.15,2.67-2.16,3.53-1.62s.65,2.35.21,3.94c3,1.74,5.22,2.8,5.22,2.8a59.74,59.74,0,0,0,2-8.48c-.15-.3-.3-.6-.44-.92-.48-1.11,0-1.59.78-1.74a29.07,29.07,0,0,0,.05-6.11c-3.38-.71-7.49-2-5.95-4.05.93-1.22,2.63-1.36,4.4-1.06a7.89,7.89,0,0,0-.84-1.13c-6.15-6.78-10.44,0-10.44,0-3.58-3-8.6-2.18-9.69,2.48C398.8,349.86,402.64,349.1,402.87,350.72Z" style="fill:#407BFF"></path><path d="M402.87,350.72c.19,1.3-3.36,2.16-6.25,2.65.24,2.37,1.82,4.77,4,7,2.74-1.55,6.66-3.6,7.39-3.1s-3.23,3.14-5.74,4.67a50.94,50.94,0,0,0,5.69,4.31c1.23-1.15,2.67-2.16,3.53-1.62s.65,2.35.21,3.94c3,1.74,5.22,2.8,5.22,2.8a59.74,59.74,0,0,0,2-8.48c-.15-.3-.3-.6-.44-.92-.48-1.11,0-1.59.78-1.74a29.07,29.07,0,0,0,.05-6.11c-3.38-.71-7.49-2-5.95-4.05.93-1.22,2.63-1.36,4.4-1.06a7.89,7.89,0,0,0-.84-1.13c-6.15-6.78-10.44,0-10.44,0-3.58-3-8.6-2.18-9.69,2.48C398.8,349.86,402.64,349.1,402.87,350.72Z" style="fill:#fff;opacity:0.30000000000000004;isolation:isolate"></path><path d="M410.55,400.54l-.89-.07c0-.46,3.65-45.86-6.54-50.14a3.45,3.45,0,0,0-3.09.08c-3.68,1.91-5.44,9.86-5.46,9.94l-.87-.19c.07-.34,1.87-8.43,5.92-10.54a4.35,4.35,0,0,1,3.84-.11C414.24,354,410.71,398.64,410.55,400.54Z" style="fill:#407BFF"></path><path d="M411.83,399.56c-.18-2.05-4.33-50.08,3.44-55.18,1.87-1.22,3.53-1.48,4.94-.77,3.67,1.86,4.16,9.71,4.18,10.05l-.89,0c0-.08-.47-7.68-3.69-9.3-1.11-.56-2.47-.32-4.05.72-7.33,4.81-3.08,53.85-3,54.35Z" style="fill:#407BFF"></path><path d="M413,403.44c-.05-1.56-1.34-38.33,5.75-41.55a4.93,4.93,0,0,1,4.21,0c4.86,2.13,7.86,11.19,8,11.57l-.84.28c0-.09-3-9.06-7.5-11a4.1,4.1,0,0,0-3.49,0c-5.43,2.47-5.61,30.22-5.22,40.71Z" style="fill:#407BFF"></path><path d="M411.2,401.76l-.88-.1c1.25-11,3.63-40.11-.27-43.58a1.54,1.54,0,0,0-1.59-.5c-2.61,1-4.2,10.49-4.6,14.06l-.88-.1c.15-1.37,1.57-13.41,5.16-14.79a2.38,2.38,0,0,1,2.51.66C415.68,361.91,411.39,400.13,411.2,401.76Z" style="fill:#407BFF"></path><polygon points="396.35 381.01 428.32 381.01 425.65 416.83 399.02 416.83 396.35 381.01" style="fill:#407BFF"></polygon><path d="M400.71,367.87c-.34.87-2.82.19-4.77-.51a8.89,8.89,0,0,0,.06,5.7c2.22,0,5.34.07,5.62.63s-3.07.83-5.14.91a36.46,36.46,0,0,0,2,4.6c1.15-.28,2.39-.41,2.73.22s-.4,1.67-1.22,2.5c1.25,2.1,2.26,3.52,2.26,3.52a42.83,42.83,0,0,0,4.14-4.55c0-.24,0-.47,0-.72.09-.85.54-1,1.08-.8a21.31,21.31,0,0,0,2.13-3.75c-1.84-1.6-3.93-3.82-2.28-4.54,1-.44,2.09.06,3.07.86a5.36,5.36,0,0,0-.12-1c-1.47-6.29-6.45-3.58-6.45-3.58-1.18-3.07-4.55-4.29-6.82-1.79C398.49,366,401.12,366.79,400.71,367.87Z" style="fill:#407BFF"></path><path d="M400.71,367.87c-.34.87-2.82.19-4.77-.51a8.89,8.89,0,0,0,.06,5.7c2.22,0,5.34.07,5.62.63s-3.07.83-5.14.91a36.46,36.46,0,0,0,2,4.6c1.15-.28,2.39-.41,2.73.22s-.4,1.67-1.22,2.5c1.25,2.1,2.26,3.52,2.26,3.52a42.83,42.83,0,0,0,4.14-4.55c0-.24,0-.47,0-.72.09-.85.54-1,1.08-.8a21.31,21.31,0,0,0,2.13-3.75c-1.84-1.6-3.93-3.82-2.28-4.54,1-.44,2.09.06,3.07.86a5.36,5.36,0,0,0-.12-1c-1.47-6.29-6.45-3.58-6.45-3.58-1.18-3.07-4.55-4.29-6.82-1.79C398.49,366,401.12,366.79,400.71,367.87Z" style="fill:#fff;opacity:0.30000000000000004;isolation:isolate"></path><path d="M424.45,372.12a12.64,12.64,0,0,0-2.93.62,7.2,7.2,0,0,1-.43-2.12c-.2-6.45,4.42-3.73,6.86-5.62a5.24,5.24,0,0,1,4.08-1.28,7.53,7.53,0,0,0-.55,1.1,1,1,0,0,0,.78,1.38,2.4,2.4,0,0,0,2.27-.54,9.19,9.19,0,0,1,.89,2.16,12.27,12.27,0,0,1,.41,2.76,10,10,0,0,0-1.07.3,1,1,0,0,0-.41,1.54,4.84,4.84,0,0,0,1.33.93,14.74,14.74,0,0,1-.81,3l-.33.05-.69.17a2.62,2.62,0,0,0-.39.15,1,1,0,0,0-.6.78,1,1,0,0,0,.38.93,3.82,3.82,0,0,0,.48.29,7.1,7.1,0,0,1-2.56,2.58,26.65,26.65,0,0,1-2.71-1.43c.19-.26.38-.52.56-.79a1.45,1.45,0,0,0,.27-1,1.39,1.39,0,0,0-.52-.91,1.38,1.38,0,0,0-1.92.25c-.21.32-.45.62-.68.92a17,17,0,0,1-3.28-3.18l.1,0a11.15,11.15,0,0,1,1.82-.3,1.37,1.37,0,0,0-.35-2.72Z" style="fill:#407BFF"></path><path d="M424.45,372.12a12.64,12.64,0,0,0-2.93.62,7.2,7.2,0,0,1-.43-2.12c-.2-6.45,4.42-3.73,6.86-5.62a5.24,5.24,0,0,1,4.08-1.28,7.53,7.53,0,0,0-.55,1.1,1,1,0,0,0,.78,1.38,2.4,2.4,0,0,0,2.27-.54,9.19,9.19,0,0,1,.89,2.16,12.27,12.27,0,0,1,.41,2.76,10,10,0,0,0-1.07.3,1,1,0,0,0-.41,1.54,4.84,4.84,0,0,0,1.33.93,14.74,14.74,0,0,1-.81,3l-.33.05-.69.17a2.62,2.62,0,0,0-.39.15,1,1,0,0,0-.6.78,1,1,0,0,0,.38.93,3.82,3.82,0,0,0,.48.29,7.1,7.1,0,0,1-2.56,2.58,26.65,26.65,0,0,1-2.71-1.43c.19-.26.38-.52.56-.79a1.45,1.45,0,0,0,.27-1,1.39,1.39,0,0,0-.52-.91,1.38,1.38,0,0,0-1.92.25c-.21.32-.45.62-.68.92a17,17,0,0,1-3.28-3.18l.1,0a11.15,11.15,0,0,1,1.82-.3,1.37,1.37,0,0,0-.35-2.72Z" style="fill:#fff;opacity:0.5;isolation:isolate"></path><path d="M426.29,349.89a8.26,8.26,0,0,1,1.81-1,4.85,4.85,0,0,0-.71-1.3c-2.72-3.48-3.95,0-6.06.05a3.63,3.63,0,0,0-2.71,1.12c.26.1.52.21.78.34a.7.7,0,0,1,.19,1.07,2,2,0,0,1-1,.68,1.58,1.58,0,0,1-.38,0,5.77,5.77,0,0,0,.48,1.53,8.25,8.25,0,0,0,1,1.63,6.29,6.29,0,0,1,.7-.32.7.7,0,0,1,.89.63,3.6,3.6,0,0,1-.29,1.08,10.85,10.85,0,0,0,1.75,1.23l.19-.12.45-.22a2,2,0,0,1,.26-.09.69.69,0,0,1,.66.15.68.68,0,0,1,.21.65c0,.13-.08.25-.12.37a4.81,4.81,0,0,0,2.47.23,19.66,19.66,0,0,0,.8-1.95l-.64-.16a1,1,0,0,1-.59-.41.94.94,0,0,1-.13-.71,1,1,0,0,1,.42-.59.9.9,0,0,1,.7-.12c.25.07.51.13.77.18a11.43,11.43,0,0,0,.32-3.1l-.06,0a7.41,7.41,0,0,0-1.09.64.94.94,0,1,1-1-1.58Z" style="fill:#407BFF"></path><path d="M426.29,349.89a8.26,8.26,0,0,1,1.81-1,4.85,4.85,0,0,0-.71-1.3c-2.72-3.48-3.95,0-6.06.05a3.63,3.63,0,0,0-2.71,1.12c.26.1.52.21.78.34a.7.7,0,0,1,.19,1.07,2,2,0,0,1-1,.68,1.58,1.58,0,0,1-.38,0,5.77,5.77,0,0,0,.48,1.53,8.25,8.25,0,0,0,1,1.63,6.29,6.29,0,0,1,.7-.32.7.7,0,0,1,.89.63,3.6,3.6,0,0,1-.29,1.08,10.85,10.85,0,0,0,1.75,1.23l.19-.12.45-.22a2,2,0,0,1,.26-.09.69.69,0,0,1,.66.15.68.68,0,0,1,.21.65c0,.13-.08.25-.12.37a4.81,4.81,0,0,0,2.47.23,19.66,19.66,0,0,0,.8-1.95l-.64-.16a1,1,0,0,1-.59-.41.94.94,0,0,1-.13-.71,1,1,0,0,1,.42-.59.9.9,0,0,1,.7-.12c.25.07.51.13.77.18a11.43,11.43,0,0,0,.32-3.1l-.06,0a7.41,7.41,0,0,0-1.09.64.94.94,0,1,1-1-1.58Z" style="fill:#fff;opacity:0.30000000000000004;isolation:isolate"></path><path d="M400.24,356.34c-.19,1.31,3.36,2.17,6.25,2.66-.23,2.37-1.81,4.77-4,7-2.75-1.54-6.67-3.59-7.39-3.09s3.22,3.14,5.73,4.67a50.83,50.83,0,0,1-5.68,4.31c-1.23-1.15-2.67-2.16-3.53-1.62s-.65,2.35-.21,3.94c-3,1.74-5.23,2.8-5.23,2.8a60.6,60.6,0,0,1-2-8.48c.15-.3.3-.6.44-.92.48-1.11,0-1.59-.79-1.74a30.49,30.49,0,0,1-.05-6.11c3.38-.71,7.5-2,6-4-.93-1.23-2.63-1.36-4.4-1.06a7.92,7.92,0,0,1,.83-1.14c6.16-6.78,10.45,0,10.45,0,3.57-3,8.6-2.17,9.68,2.49C404.31,355.49,400.47,354.73,400.24,356.34Z" style="fill:#407BFF"></path><path d="M400.24,356.34c-.19,1.31,3.36,2.17,6.25,2.66-.23,2.37-1.81,4.77-4,7-2.75-1.54-6.67-3.59-7.39-3.09s3.22,3.14,5.73,4.67a50.83,50.83,0,0,1-5.68,4.31c-1.23-1.15-2.67-2.16-3.53-1.62s-.65,2.35-.21,3.94c-3,1.74-5.23,2.8-5.23,2.8a60.6,60.6,0,0,1-2-8.48c.15-.3.3-.6.44-.92.48-1.11,0-1.59-.79-1.74a30.49,30.49,0,0,1-.05-6.11c3.38-.71,7.5-2,6-4-.93-1.23-2.63-1.36-4.4-1.06a7.92,7.92,0,0,1,.83-1.14c6.16-6.78,10.45,0,10.45,0,3.57-3,8.6-2.17,9.68,2.49C404.31,355.49,400.47,354.73,400.24,356.34Z" style="fill:#fff;opacity:0.5;isolation:isolate"></path></g><g id="plant-1"><path d="M84.8,393.46s-4.59-10,.66-19.92,6.77-12.21,3.43-14.24S84,367.21,84,367.21a22.3,22.3,0,0,1-.49-14c2.33-7.16,3.79-18.8.61-20.05s-.61,14.53-3.37,19.91a46.28,46.28,0,0,1-2.7-11.73c-.38-5.75.22-14.92-2.3-17.27s-4.12-.73-1.65,12a132.4,132.4,0,0,1,2.45,23s-5.45-16.63-9.11-17.12-3.66,4.9-.53,9.58,9.18,13,10.17,17.34c0,0-6-12.51-11.37-8.68s4.69,11.39,9.18,14.13,7.6,19.85,7.6,19.85Z" style="fill:#407BFF"></path><path d="M84.8,393.46s-4.59-10,.66-19.92,6.77-12.21,3.43-14.24S84,367.21,84,367.21a22.3,22.3,0,0,1-.49-14c2.33-7.16,3.79-18.8.61-20.05s-.61,14.53-3.37,19.91a46.28,46.28,0,0,1-2.7-11.73c-.38-5.75.22-14.92-2.3-17.27s-4.12-.73-1.65,12a132.4,132.4,0,0,1,2.45,23s-5.45-16.63-9.11-17.12-3.66,4.9-.53,9.58,9.18,13,10.17,17.34c0,0-6-12.51-11.37-8.68s4.69,11.39,9.18,14.13,7.6,19.85,7.6,19.85Z" style="fill:#fff;opacity:0.6000000000000001;isolation:isolate"></path><path d="M81.18,397.57s4.47-10.1-.9-19.9-6.92-12.12-3.59-14.19,5,7.83,5,7.83a22.34,22.34,0,0,0,.33-14c-2.42-7.11-4-18.74-.85-20s.78,14.53,3.61,19.86a46.46,46.46,0,0,0,2.55-11.77c.32-5.75-.39-14.91,2.1-17.3s4.11-.79,1.79,11.93A132,132,0,0,0,89,363s5.25-16.71,8.9-17.25,3.72,4.85.64,9.56-9,13.18-10,17.5c0,0,5.84-12.6,11.27-8.85s-4.55,11.46-9,14.26-7.36,20-7.36,20Z" style="fill:#407BFF"></path><path d="M81.18,397.57s4.47-10.1-.9-19.9-6.92-12.12-3.59-14.19,5,7.83,5,7.83a22.34,22.34,0,0,0,.33-14c-2.42-7.11-4-18.74-.85-20s.78,14.53,3.61,19.86a46.46,46.46,0,0,0,2.55-11.77c.32-5.75-.39-14.91,2.1-17.3s4.11-.79,1.79,11.93A132,132,0,0,0,89,363s5.25-16.71,8.9-17.25,3.72,4.85.64,9.56-9,13.18-10,17.5c0,0,5.84-12.6,11.27-8.85s-4.55,11.46-9,14.26-7.36,20-7.36,20Z" style="fill:#fff;opacity:0.7000000000000001;isolation:isolate"></path><polygon points="101.82 390.37 64.85 390.37 67.84 416.83 98.83 416.83 101.82 390.37" style="fill:#407BFF"></polygon></g><g id="House"><rect x="137.18" y="147.09" width="40.57" height="63.7" rx="1.23" style="fill:#407BFF"></rect><rect x="140.14" y="155.88" width="10.5" height="3.43" style="fill:#fff;opacity:0.6000000000000001;isolation:isolate"></rect><rect x="151.35" y="155.88" width="10.5" height="3.43" style="fill:#fff;opacity:0.6000000000000001;isolation:isolate"></rect><rect x="145.39" y="160.1" width="10.5" height="3.43" style="fill:#fff;opacity:0.6000000000000001;isolation:isolate"></rect><rect x="138.12" y="185.42" width="10.5" height="3.43" style="fill:#fff;opacity:0.6000000000000001;isolation:isolate"></rect><rect x="149.32" y="185.42" width="10.5" height="3.43" style="fill:#fff;opacity:0.6000000000000001;isolation:isolate"></rect><rect x="143.36" y="189.64" width="10.5" height="3.43" style="fill:#fff;opacity:0.6000000000000001;isolation:isolate"></rect><rect x="159.52" y="168.15" width="10.5" height="3.43" style="fill:#fff;opacity:0.6000000000000001;isolation:isolate"></rect><rect x="138.12" y="170.65" width="10.5" height="3.43" style="fill:#fff;opacity:0.6000000000000001;isolation:isolate"></rect><rect x="164.77" y="172.37" width="10.5" height="3.43" style="fill:#fff;opacity:0.6000000000000001;isolation:isolate"></rect><rect x="143.36" y="180.61" width="10.5" height="3.43" style="fill:#fff;opacity:0.6000000000000001;isolation:isolate"></rect><rect x="135.8" y="145.39" width="43.32" height="7.33" rx="1.01" style="fill:#407BFF"></rect><rect x="135.8" y="145.39" width="43.32" height="7.33" rx="1.01" style="fill:#fff;opacity:0.6000000000000001;isolation:isolate"></rect><polygon points="407.91 238.43 250 135.04 92.09 238.43 122.51 238.43 122.51 414.83 377.49 414.83 377.49 238.43 407.91 238.43" style="fill:#407BFF"></polygon><polygon points="407.91 238.43 377.48 238.43 377.48 414.83 122.51 414.83 122.51 238.43 92.09 238.43 250 135.05 407.91 238.43" style="fill:#fff;opacity:0.8;isolation:isolate"></polygon><rect x="279.69" y="262" width="76.34" height="67.74" style="fill:#407BFF"></rect><rect x="279.69" y="262" width="76.34" height="67.74" style="fill:#fff;opacity:0.8;isolation:isolate"></rect><rect x="281.6" y="263.86" width="72.42" height="64.06" style="fill:#fff;opacity:0.8"></rect><polygon points="298.6 263.86 281.61 327.78 281.61 297.75 290.58 263.86 298.6 263.86" style="fill:#fff"></polygon><polygon points="304.62 263.86 287.48 327.92 284.74 327.92 301.88 263.86 304.62 263.86" style="fill:#fff"></polygon><polygon points="354.02 304.28 354.02 314.52 350.56 327.92 347.82 327.92 354.02 304.28" style="fill:#fff"></polygon><rect x="305.64" y="262.71" width="1.22" height="66.65" style="fill:#407BFF"></rect><rect x="329.29" y="262.71" width="1.22" height="66.65" style="fill:#407BFF"></rect><rect x="305.64" y="262.71" width="1.22" height="66.65" style="fill:#fff;opacity:0.8;isolation:isolate"></rect><rect x="329.29" y="262.71" width="1.22" height="66.65" style="fill:#fff;opacity:0.8;isolation:isolate"></rect><polygon points="407.91 238.43 377.48 238.43 377.48 306.5 253.02 231.66 142.16 229.75 140.65 325.52 156.56 414.83 122.51 414.83 122.51 238.43 92.09 238.43 250 135.05 407.91 238.43" style="fill:#407BFF;opacity:0.2;isolation:isolate"></polygon><path d="M133.4,368.31s4.18-3.48,7.76,0,4.28,25.07,4.28,25.07" style="fill:none;stroke:#407BFF;stroke-miterlimit:10"></path><path d="M145.74,397.55s-2.47-25.33,6.81-36" style="fill:none;stroke:#407BFF;stroke-miterlimit:10"></path><path d="M144.85,394.88s1.9-28.84-5.06-35.23" style="fill:none;stroke:#407BFF;stroke-miterlimit:10"></path><path d="M145.74,394.88s.16-19.06,5.33-22,7.8,6.7,7.8,6.7" style="fill:none;stroke:#407BFF;stroke-miterlimit:10"></path><path d="M143.69,394.88s.85-14.63-3.16-19.86-8.22,2.24-8.22,2.24" style="fill:none;stroke:#407BFF;stroke-miterlimit:10"></path><path d="M145.09,396.84s-2.59-34.21,1.7-40" style="fill:none;stroke:#407BFF;stroke-miterlimit:10"></path><path d="M155.49,375.64s-2.58.95-1.81,3.19,8.92,5.94,8.92,5.94,3.41-3.13.28-8.22S155.56,374,155.49,375.64Z" style="fill:#407BFF"></path><path d="M155.49,375.64s-2.58.95-1.81,3.19,8.92,5.94,8.92,5.94,3.41-3.13.28-8.22S155.56,374,155.49,375.64Z" style="fill:#fff;opacity:0.2;isolation:isolate"></path><path d="M144.29,371.37s2.74-.12,2.9,2.25-5.95,8.91-5.95,8.91-4.35-1.58-3.42-7.48S143.61,369.91,144.29,371.37Z" style="fill:#407BFF"></path><path d="M144.29,371.37s2.74-.12,2.9,2.25-5.95,8.91-5.95,8.91-4.35-1.58-3.42-7.48S143.61,369.91,144.29,371.37Z" style="fill:#fff;opacity:0.2;isolation:isolate"></path><path d="M142,360s1.83-.19,1.69-1.31-7.12-4-11.23.66c0,0,2.64,4.52,6.44,4.58S142,360,142,360Z" style="fill:#407BFF"></path><path d="M142,360s1.83-.19,1.69-1.31-7.12-4-11.23.66c0,0,2.64,4.52,6.44,4.58S142,360,142,360Z" style="fill:#fff;opacity:0.2;isolation:isolate"></path><path d="M145.37,357.34s-1.65.8-2.12-.22,3.93-7.15,9.87-5.38c0,0,.16,5.22-3,7.29S145.37,357.34,145.37,357.34Z" style="fill:#407BFF"></path><path d="M145.37,357.34s-1.65.8-2.12-.22,3.93-7.15,9.87-5.38c0,0,.16,5.22-3,7.29S145.37,357.34,145.37,357.34Z" style="fill:#fff;opacity:0.2;isolation:isolate"></path><path d="M136.71,374.74s1.26-1-.1-1.52-8.05-.36-8.12,6.27c0,0,7.79,1.29,8.75-1.23S136.71,374.74,136.71,374.74Z" style="fill:#407BFF"></path><path d="M136.71,374.74s1.26-1-.1-1.52-8.05-.36-8.12,6.27c0,0,7.79,1.29,8.75-1.23S136.71,374.74,136.71,374.74Z" style="fill:#fff;opacity:0.2;isolation:isolate"></path><path d="M152.59,359.88s-1.26-1,.1-1.52,8.05-.36,8.12,6.27c0,0-7.79,1.29-8.75-1.23S152.59,359.88,152.59,359.88Z" style="fill:#407BFF"></path><path d="M152.59,359.88s-1.26-1,.1-1.52,8.05-.36,8.12,6.27c0,0-7.79,1.29-8.75-1.23S152.59,359.88,152.59,359.88Z" style="fill:#fff;opacity:0.2;isolation:isolate"></path><path d="M148.48,365.21s-.12-1.23.88-.75,4.49,4.25.88,7.82c0,0-4.87-3.61-4-5.48S148.48,365.21,148.48,365.21Z" style="fill:#407BFF"></path><path d="M148.48,365.21s-.12-1.23.88-.75,4.49,4.25.88,7.82c0,0-4.87-3.61-4-5.48S148.48,365.21,148.48,365.21Z" style="fill:#fff;opacity:0.2;isolation:isolate"></path><path d="M135.58,367s.76-1-.35-1.11-6.06,1.2-4.91,6.14c0,0,6-.45,6.3-2.5S135.58,367,135.58,367Z" style="fill:#407BFF"></path><path d="M135.58,367s.76-1-.35-1.11-6.06,1.2-4.91,6.14c0,0,6-.45,6.3-2.5S135.58,367,135.58,367Z" style="fill:#fff;opacity:0.2;isolation:isolate"></path><polygon points="155.97 413.24 135.26 413.24 133.03 390.56 158.21 390.56 155.97 413.24" style="fill:#407BFF"></polygon><polygon points="155.97 413.24 135.26 413.24 133.03 390.56 158.21 390.56 155.97 413.24" style="fill:#fff;opacity:0.5;isolation:isolate"></polygon><rect x="131.92" y="388.06" width="27.39" height="5" style="fill:#407BFF"></rect><rect x="131.92" y="388.06" width="27.39" height="5" style="fill:#fff;opacity:0.2;isolation:isolate"></rect><path d="M355.23,229.27v19.45a1.85,1.85,0,0,1-2,1.82H287.58s-7.6-3.55-7.06-8.49c.43-4,.88-7.17,1.25-9.62a6,6,0,0,1,6-5.14h65.47A2,2,0,0,1,355.23,229.27Z" style="fill:#407BFF"></path><path d="M355.23,229.27v19.45a1.85,1.85,0,0,1-2,1.82H287.58s-7.6-3.55-7.06-8.49c.43-4,.88-7.17,1.25-9.62a6,6,0,0,1,6-5.14h65.47A2,2,0,0,1,355.23,229.27Z" style="fill:#fff;opacity:0.8"></path><path d="M355.23,229.27v19.45a1.85,1.85,0,0,1-2,1.82h-5.79s-7.6-3.55-7-8.49c.43-4,.87-7.17,1.24-9.62a6,6,0,0,1,6-5.14h5.59A2,2,0,0,1,355.23,229.27Z" style="opacity:0.2;isolation:isolate"></path><path d="M282,243.61H339.4s1.9,4.21,5.11,5.94H288.46S282.53,246.83,282,243.61Z" style="fill:#407BFF"></path><path d="M282,243.61H339.4s1.9,4.21,5.11,5.94H288.46S282.53,246.83,282,243.61Z" style="fill:#fff;opacity:0.4"></path><polygon points="285.99 247.57 341.38 247.57 340.56 249.55 285.99 249.55 285.99 247.57" style="fill:#fff;opacity:0.4"></polygon><polygon points="284.01 245.09 339.4 245.09 338.58 247.07 284.01 247.07 284.01 245.09" style="fill:#fff;opacity:0.4"></polygon><rect x="336.02" y="242.13" width="1.4" height="0.58" style="fill:#407BFF"></rect><rect x="334.04" y="242.13" width="1.4" height="0.58" style="fill:#407BFF"></rect><path d="M254.82,203.3a5.14,5.14,0,0,1-9.64,0Z" style="fill:#fff;opacity:0.8"></path><polygon points="260.89 203.29 251.31 193.71 251.31 134.66 248.7 134.66 248.7 193.71 239.12 203.29 260.89 203.29" style="opacity:0.2;isolation:isolate"></polygon><path d="M349.54,338H272.32a11.14,11.14,0,0,0-11.14,11.14v44.3h99.5v-44.3A11.14,11.14,0,0,0,349.54,338Z" style="fill:#407BFF"></path><path d="M349.54,338H272.32a11.14,11.14,0,0,0-11.14,11.14v44.3h99.5v-44.3A11.14,11.14,0,0,0,349.54,338Z" style="fill:#fff;opacity:0.4;isolation:isolate"></path><path d="M254.56,370.87H244.4a6.63,6.63,0,0,0-6.62,6.63v36.63h23.4V377.5A6.63,6.63,0,0,0,254.56,370.87Z" style="fill:#407BFF"></path><path d="M254.56,370.87H244.4a6.63,6.63,0,0,0-6.62,6.63v36.63h23.4V377.5A6.63,6.63,0,0,0,254.56,370.87Z" style="fill:#fff;opacity:0.4;isolation:isolate"></path><path d="M244.62,370.87h-.22a6.63,6.63,0,0,0-6.62,6.63v36.63h13.46V377.5A6.63,6.63,0,0,0,244.62,370.87Z" style="fill:#fff;opacity:0.5;isolation:isolate"></path><rect x="254.07" y="397.3" width="98.34" height="16.83" style="fill:#407BFF"></rect><rect x="254.07" y="397.3" width="98.34" height="16.83" transform="translate(606.49 811.44) rotate(180)" style="fill:#fff;opacity:0.4;isolation:isolate"></rect><rect x="247.23" y="381.91" width="109.03" height="17.66" rx="6.73" style="fill:#407BFF"></rect><rect x="247.23" y="381.91" width="109.03" height="17.66" rx="6.73" style="fill:#fff;opacity:0.6000000000000001;isolation:isolate"></rect><rect x="333.36" y="381.91" width="22.78" height="17.66" rx="6.73" style="opacity:0.2;isolation:isolate"></rect><path d="M360.57,370.87H350.41a6.63,6.63,0,0,0-6.62,6.63v36.63h23.4V377.5A6.63,6.63,0,0,0,360.57,370.87Z" style="fill:#407BFF"></path><path d="M360.57,370.87H350.41a6.63,6.63,0,0,0-6.62,6.63v36.63h23.4V377.5A6.63,6.63,0,0,0,360.57,370.87Z" style="fill:#fff;opacity:0.6000000000000001;isolation:isolate"></path><path d="M350.63,370.87h-.22a6.63,6.63,0,0,0-6.62,6.63v36.63h13.46V377.5A6.62,6.62,0,0,0,350.63,370.87Z" style="fill:#fff;opacity:0.4;isolation:isolate"></path><path d="M377.49,416.83h-255a2,2,0,0,1-2-2V240.43H92.09A2,2,0,0,1,91,236.76L248.9,133.37a2,2,0,0,1,2.19,0L409,236.76a2,2,0,0,1-1.09,3.67H379.49v174.4A2,2,0,0,1,377.49,416.83Zm-253-4h251V238.43a2,2,0,0,1,2-2H401.2l-151.2-99-151.2,99h23.71a2,2,0,0,1,2,2Z" style="fill:#407BFF"></path></g><g id="Character"><g id="group"><polygon points="264.82 408.01 263.43 408.17 251.91 409.45 250.01 409.66 247.71 409.92 245.81 410.13 240 410.77 241.19 400.71 241.2 400.68 241.21 400.68 242.06 400.67 246.31 400.62 248.19 400.6 250.06 400.58 251.41 400.57 257.29 400.51 260.99 400.48 264.82 408.01" style="fill:#e4897b"></polygon><path d="M277.53,416.4c-5.24-4.24-9.89-6.87-12.68-7.33a2.06,2.06,0,0,1-1.32-.78l-.1-.12-6.14-7.66-.25-.31a.75.75,0,0,1,0-.94l4.88-6.07a1.27,1.27,0,0,1,1.78-.17,1.21,1.21,0,0,1,.19.2c2.06,2.65,3.43,4.69,6.06,8,1.63,2,6.74,8,9,10.77S278.7,417.34,277.53,416.4Z" style="fill:#263238"></path><polygon points="251.91 409.45 250.01 409.66 247.71 409.92 245.81 410.13 240 410.77 241.19 400.71 241.21 400.68 242.06 400.67 246.31 400.62 248.19 400.6 250.06 400.58 251.41 400.56 251.41 400.57 251.91 409.45" style="opacity:0.2;isolation:isolate"></polygon><path d="M259.75,327.09s-4.07,10.52-9.66,26.07a11.77,11.77,0,0,1-1.48,2.63C241,366.62,210.15,391.14,213.68,395c3.29,3.63,26,3.3,32.76,3.12l1.88-.06-.13,2.5-.48,9.32-.12,2.34s-.69.16-1.92.41c-3.08.65-9.59,1.91-17.23,2.88-14.42,1.82-32.9,2.58-40.1-3.94-17.06-15.44,35.43-68.26,38.1-80.55Z" style="fill:#263238"></path><polygon points="250.09 396.31 250.06 400.58 250.01 409.66 249.99 413.31 245.61 413.87 245.67 412.67 245.81 410.13 246.31 400.62 246.44 398.16 246.51 396.8 250.09 396.31" style="fill:#407BFF"></polygon><path d="M277.53,416.4c-5.24-4.24-9.89-6.87-12.68-7.33a2.06,2.06,0,0,1-1.32-.78l-.1-.12-11.52,1.28-1.9.21,0,3.65-4.38.56.06-1.2c-3.08.65-9.59,1.91-17.23,2.88-9.79-6.26-18.78-13.21-20-18.25-2.9-11.63,24.63-48.18,24.63-48.18l15.57,6.67C241,366.62,210.15,391.14,213.68,395c3.29,3.63,26,3.3,32.76,3.12l.07-1.36,3.58-.49,0,4.27,1.35,0h0l5.88-.06-.25-.31a.75.75,0,0,1,0-.94l4.88-6.07a1.27,1.27,0,0,1,1.78-.17,1.21,1.21,0,0,1,.19.2c2.06,2.65,3.43,4.69,6.06,8,1.63,2,6.74,8,9,10.77S278.7,417.34,277.53,416.4Z" style="opacity:0.2;isolation:isolate"></path><path d="M191,287.53s-7.76,18.47-9.34,20.58-17.41-7.79-17.41-7.79l-5,8.71s17.74,11.35,24.78,11,19.25-28,19.25-28Z" style="fill:#eec1bb"></path><path d="M191,287.53s-7.76,18.47-9.34,20.58-17.41-7.79-17.41-7.79l-5,8.71s17.74,11.35,24.78,11,19.25-28,19.25-28Z" style="opacity:0.1;isolation:isolate"></path><path d="M210.61,292.42,200.48,304.2l0,.05-14.71-5.91-.79-.32s.28-.93.79-2.46c1.78-5.35,6.34-18.05,11.16-23.65l8,11.93Z" style="fill:#407BFF"></path><path d="M210.61,292.42,200.48,304.2a92.06,92.06,0,0,1,4.39-20.36Z" style="opacity:0.2;isolation:isolate"></path><path d="M252.55,239.41s26.26,4.63,26.51,13.11c.33,11.33-27.7,16-27.7,16l-7.78-12.62s21.3-2.17,21-3.41-13.52-4.69-13.52-4.69Z" style="fill:#eec1bb"></path><path d="M252.55,239.41s26.26,4.63,26.51,13.11c.33,11.33-27.7,16-27.7,16l-7.78-12.62s21.3-2.17,21-3.41-13.52-4.69-13.52-4.69Z" style="opacity:0.1;isolation:isolate"></path><path d="M222.73,257.72s3.92-3.21,32.79-4.79l5.34,16.79-11.88,5S239.58,258.36,222.73,257.72Z" style="fill:#407BFF"></path><polygon points="304.82 408.01 291.91 409.45 280 410.77 281.19 400.7 281.2 400.68 281.21 400.68 282.06 400.67 291.41 400.57 300.99 400.48 304.82 408.01" style="fill:#e4897b"></polygon><path d="M303.53,408.29,297,400.2a.75.75,0,0,1,0-.94l4.88-6.07a1.27,1.27,0,0,1,1.78-.17,1.21,1.21,0,0,1,.19.2c2.06,2.65,3.43,4.69,6.06,8,1.63,2,6.74,8,9,10.77s-.23,5.38-1.4,4.44c-5.24-4.24-9.89-6.87-12.68-7.33A2.06,2.06,0,0,1,303.53,408.29Z" style="fill:#263238"></path><path d="M306.47,409.56a2.5,2.5,0,0,1,.68,1.55,1.16,1.16,0,0,1-.58,1,.59.59,0,0,1-.66.08c-1-.43-1.37-3.64-1.41-4a.18.18,0,0,1,.09-.2.21.21,0,0,1,.23,0A10.08,10.08,0,0,1,306.47,409.56Zm-.59,2.1a.51.51,0,0,0,.21.17s.13,0,.26-.05a.8.8,0,0,0,.4-.67,4.18,4.18,0,0,0-1.78-2.47A8.4,8.4,0,0,0,305.88,411.66Z" style="fill:#407BFF"></path><path d="M304.86,408.05l.06.07c.18,1-.22,3.49-1,3.92a.66.66,0,0,1-.82-.17,1.1,1.1,0,0,1-.34-.84c0-1.27,1.8-3,1.89-3a.2.2,0,0,1,.2,0A.15.15,0,0,1,304.86,408.05Zm-1.63,3.5.06.08c.17.2.3.12.35.1.5-.26.93-2,.9-3.1a4.79,4.79,0,0,0-1.46,2.46A.75.75,0,0,0,303.23,411.55Z" style="fill:#407BFF"></path><polygon points="291.91 409.45 280 410.77 281.19 400.7 281.21 400.68 282.06 400.67 291.41 400.56 291.41 400.57 291.91 409.45" style="opacity:0.2;isolation:isolate"></polygon><path d="M241,325.8c-2.68,12.3-29.68,70.37-12.62,85.81,12.53,11.35,59.25.65,59.25.65l.73-14.16s-36.77,1.21-40.64-3.06,18.83-36.38,22-45.14c5.59-15.55-.47-24.73-.47-24.73Z" style="fill:#263238"></path><polygon points="286.51 396.8 285.61 413.87 289.99 413.31 290.09 396.31 286.51 396.8" style="fill:#407BFF"></polygon><path d="M213.32,242.65s3.38,4.95,6.15,4.86c0,0-.13,3.51-1.8,3.86,0,0,2.56,2.33,1,5.12a1.58,1.58,0,0,0-1.71-1.11s2.58,4.44-2.08,8-12.3,3-12.3,3a4.55,4.55,0,0,0,.55-1.65,4,4,0,0,1-2.89,1.25s1-2.76-2.39-5.34-3.87-2.95-3.87-2.95-2.73,1.1-4.58-.35c0,0,1.5-1.23-.37-6.33s-3.65-11.22,6.25-13.75S211.29,239,213.32,242.65Z" style="fill:#263238"></path><path d="M272.53,332l-50.19,4.51s-7.36-37.18-16.56-48.73-8.89-15.91-8.89-15.91,6.09-8.48,20.79-13.14,29.13,5.61,29.13,5.61a58.39,58.39,0,0,1,6.18,9c1.34,2.29,2.82,5,4.36,8.28C262.57,292.58,268.58,309,272.53,332Z" style="fill:#407BFF"></path><path d="M226,258s-1.14,9.63-9.34,11.34c-5.61,1.17-7.91-.6-8.8-1.83a3.19,3.19,0,0,1-.53-1s3.18-.6-1.59-4.39c-3.27-2.59.94-6.64,3.94-8.95,1.38-1.07,2.51-1.77,2.51-1.77s3.22,7.51,7.86,7.4S226,258,226,258Z" style="fill:#eec1bb"></path><path d="M207.9,267.51a3.19,3.19,0,0,1-.53-1s3.18-.6-1.59-4.39c-3.27-2.59.94-6.64,3.94-8.95a18.79,18.79,0,0,1,2.35-.62S216,263.58,207.9,267.51Z" style="opacity:0.2;isolation:isolate"></path><path d="M211.75,256.06a11.94,11.94,0,0,1-1.09,2.91c-3.88,7.49-14.12,6.91-18.21,0a20.92,20.92,0,0,1-1-1.89c-3-6.4-4.45-16.16,1.32-20.88A10.65,10.65,0,0,1,210,242.09C211.44,248.16,212.67,252.15,211.75,256.06Z" style="fill:#eec1bb"></path><path d="M211.75,256.06a11.94,11.94,0,0,1-1.09,2.91c-3.88,7.49-14.12,6.91-18.21,0a20.92,20.92,0,0,1-1-1.89c1.57-1.09,5.73-1.46,5.73-1.46s3.42-3.62,6-4.28a5.81,5.81,0,0,1,4.31.41l-.72-3.37,1.6,2.68A17.29,17.29,0,0,1,211.75,256.06Z" style="opacity:0.1;isolation:isolate"></path><path d="M199.31,247.65a1,1,0,0,1-.38,1.31c-.4.13-.87-.27-1.06-.87s0-1.2.38-1.32S199.12,247,199.31,247.65Z" style="fill:#263238"></path><path d="M192.46,249.76a1,1,0,0,1-.38,1.31c-.39.12-.87-.27-1.06-.87s0-1.2.38-1.32S192.28,249.18,192.46,249.76Z" style="fill:#263238"></path><path d="M194.73,249.39a22.54,22.54,0,0,1-1.3,6.07,3.7,3.7,0,0,0,3.08-.35Z" style="fill:#d4827d"></path><path d="M196.16,246.2a.4.4,0,0,1,.25-.3,3,3,0,0,0,2-1.85.36.36,0,0,1,.45-.26.37.37,0,0,1,.27.45h0a3.69,3.69,0,0,1-2.43,2.37.37.37,0,0,1-.47-.22h0A1.09,1.09,0,0,1,196.16,246.2Z" style="fill:#263238"></path><path d="M191.61,247.18a.42.42,0,0,1,.14.18.37.37,0,0,1-.31.42h0a3.71,3.71,0,0,1-3.24-1,.37.37,0,0,1,0-.52h0a.38.38,0,0,1,.52,0h0a3,3,0,0,0,2.58.78A.39.39,0,0,1,191.61,247.18Z" style="fill:#263238"></path><path d="M202.42,258.44c-.21.12-.43.22-.66.33l-4-2.52s.17-.22.46-.55c1-1.13,3.28-3.51,5.15-3.13a4.12,4.12,0,0,1,.62.21,3.32,3.32,0,0,1,1.68,1.57C206.08,255.41,205.58,256.85,202.42,258.44Z" style="fill:#263238"></path><path d="M204,252.78l-5.24,3.15-.53-.23c1-1.13,3.28-3.51,5.15-3.13A4.12,4.12,0,0,1,204,252.78Z" style="fill:#fff"></path><path d="M202.42,258.44c-.66-1.84,1.69-3.37,3.22-4.09C206.08,255.41,205.58,256.85,202.42,258.44Z" style="fill:#de5753"></path><path d="M195,239.31a2.15,2.15,0,0,1,2.65,0c1.61,1,2.88,4.22,4.68,6.33a9.64,9.64,0,0,0,4.51,2.77l2.44,4.11,3-1.15,1.84-5.24a2.76,2.76,0,0,0,2.63-1.55s-1.91.2-3.42-2.31a2.61,2.61,0,0,0,3,.2,4,4,0,0,1-3.5-2.17c-1.51-2.38-.66-6.54-5.27-8.61s-9.74.3-9.74.3-4.65-1-5.47,3.12a5.26,5.26,0,0,0-6.07,1.43c-2.52,3-3.18,7.45-.87,10.75a4.89,4.89,0,0,1-.07,6s1.59,1.92,3.5,1,.13-5.78.46-10.15S192.56,238.65,195,239.31Z" style="fill:#263238"></path><path d="M215.85,249.26a7.4,7.4,0,0,1-3.45,4.48c-2.26,1.28-4-.59-3.92-3.05.11-2.19,1.4-5.56,3.93-5.81S216.45,246.92,215.85,249.26Z" style="fill:#eec1bb"></path><path d="M195,238.68s2.14-.89,2.65,2.47,2.35,5.56,4.13,5.6" style="fill:none;stroke:#263238;stroke-linecap:round;stroke-linejoin:round;stroke-width:0.5px"></path><path d="M194.06,238.57s-2.52.51-2.6,2.58,2.24,6.22,2,7.71" style="fill:none;stroke:#263238;stroke-linecap:round;stroke-linejoin:round;stroke-width:0.5px"></path><path d="M257.35,281.69c-13.7-1.28-20.59-14.79-20.81-15.23,5.34,4.81,15.93,6.77,15.93,6.77l.52.18C254.33,275.7,255.81,278.45,257.35,281.69Z" style="opacity:0.2;isolation:isolate"></path><path d="M250,304.85c0,.1,0,.2,0,.3-.32,12.66-22.36,15.83-27.66,6.93-.23-.38-.46-.79-.68-1.21-.1-.17-.2-.35-.29-.53a51.11,51.11,0,0,1-3-6.83,47.49,47.49,0,0,1-1.57-5.35c-1.74-7.71-1.09-15.44,5.93-17.93,10-3.55,21,5.66,25.34,15.87a26.42,26.42,0,0,1,1.27,3.69,21.45,21.45,0,0,1,.57,3.11A18.46,18.46,0,0,1,250,304.85Z" style="fill:#fff;opacity:0.7000000000000001;isolation:isolate"></path><path d="M250,304.85c0,.1,0,.2,0,.3-.32,12.66-22.36,15.83-27.66,6.93-.23-.38-.46-.79-.68-1.21-.1-.17-.2-.35-.29-.53a51.11,51.11,0,0,1-3-6.83,47.49,47.49,0,0,1-1.57-5.35,2.58,2.58,0,0,1,1.57,1.46l5.65-1.09-3.42,1.23c1.19.2,1.78,2.13,1.78,2.13a2.61,2.61,0,0,1,2.67-1.14,5.82,5.82,0,0,1,3,1.88l2.77-.33-2.05.6a7.43,7.43,0,0,1,2.39.23,1.41,1.41,0,0,0,1.24-1.68c-.24-1.49,2.53-2.58,2.53-2.58l-1.95.25,2.69-1a2.63,2.63,0,0,1,.85-2.22c1.06-.94,3,0,3,0a2.91,2.91,0,0,1,3.81-2.43,5.4,5.4,0,0,1,3,2.67h1.79a26.42,26.42,0,0,1,1.27,3.69,21.45,21.45,0,0,1,.57,3.11A18.46,18.46,0,0,1,250,304.85Z" style="fill:#fff;opacity:0.4"></path><path d="M249.34,299.79a21.45,21.45,0,0,1,.57,3.11c-13.2,2.73-24.26,6.08-28.54,7.44a51.11,51.11,0,0,1-3-6.83c.11-.8.25-1.35.45-1.42.84-.31,3.71,2.32,4.6,2.16s.84-2.41,1.63-2.36,7.22,4.35,7.47,4.06,2.33-6.68,2.57-6.68,2.77,1.14,3.12.44,2.57-6.13,4.3-5.39C243.75,294.86,247.39,298,249.34,299.79Z" style="fill:#407BFF;opacity:0.30000000000000004"></path><path d="M250,305.15c-.32,12.66-22.36,15.83-27.66,6.93-.32-.54-.65-1.13-1-1.74,4.28-1.36,15.34-4.71,28.54-7.44A17.07,17.07,0,0,1,250,305.15Z" style="fill:#407BFF;opacity:0.5"></path><path d="M245.09,311.6a.45.45,0,0,0-.21-.13l-.17,0a1.21,1.21,0,0,0-.38.06c-1.31.48-2.62.82-4,1.17a66.13,66.13,0,0,1-7.72,1.59h0c.62-.26,1.27-.49,1.91-.72l3.92-1.32c.66-.22,1.31-.45,2-.69a10.47,10.47,0,0,0,1-.42c.08-.05.16-.08.26-.15a.92.92,0,0,0,.15-.11l.09-.11a.44.44,0,0,0,.06-.31.46.46,0,0,0-.3-.32.93.93,0,0,0-.19,0,1.72,1.72,0,0,0-.31,0,30.3,30.3,0,0,0-4.14.7c-1.35.28-2.7.6-4,.81l-.38,0,.37-.19c.6-.3,1.24-.55,1.88-.81,1.28-.52,2.58-1,3.84-1.61l.23-.14c.07-.08.2,0,.24-.36a.25.25,0,0,0-.11-.17l-.09-.05-.16,0a1.46,1.46,0,0,0-.29,0,7.18,7.18,0,0,0-1.05.12l-2,.38c-.33.06-.67.12-1,.16s-.85.08-.56-.14a8.15,8.15,0,0,1,1.83-.88c.32-.12.64-.25,1-.4a2.28,2.28,0,0,0,.45-.26c.06-.05.17-.13.12-.25a.42.42,0,0,0-.23-.17,4.74,4.74,0,0,0-2.05.16,4.82,4.82,0,0,1,2-.1.4.4,0,0,1,.19.14s0,.12-.1.16a2.79,2.79,0,0,1-.45.24c-.31.14-.64.25-1,.37a8.16,8.16,0,0,0-1.92.85c-.06.07-.17.15-.12.32s.21.15.29.17a2,2,0,0,0,.54,0c.35,0,.69-.08,1-.13l2-.32a6.85,6.85,0,0,1,1-.08h.18a.77.77,0,0,1-.18.1c-1.21.57-2.54,1-3.82,1.51-.65.25-1.29.49-1.93.79l-.48.24a2.56,2.56,0,0,0-.25.16.54.54,0,0,0-.25.39.34.34,0,0,0,.26.33l.18,0h.29l.54-.05c1.39-.19,2.73-.48,4.09-.74,1.1-.2,2.22-.44,3.31-.56l-.28.11c-.64.24-1.29.46-1.94.68l-3.93,1.3c-.66.22-1.31.45-2,.73a3.9,3.9,0,0,0-1,.57.64.64,0,0,0-.17.25.54.54,0,0,0,0,.35.44.44,0,0,0,.16.17.88.88,0,0,0,.43.13,3.61,3.61,0,0,0,.57,0,63.29,63.29,0,0,0,8.18-1.62c1.14-.29,2.3-.6,3.42-1a5.2,5.2,0,0,1-.43.37,14.52,14.52,0,0,1-1.67,1.09,22.85,22.85,0,0,1-7.77,2.45,17.89,17.89,0,0,0,8.1-1.81,11.36,11.36,0,0,0,1.82-1.11,5.72,5.72,0,0,0,.83-.74,1.39,1.39,0,0,0,.37-.63A.52.52,0,0,0,245.09,311.6Z" style="fill:#fff;opacity:0.4"></path><circle cx="229.31" cy="297.88" r="2.87" style="fill:#fff"></circle><path d="M237.81,289.28c-1.38-1-2.27.64-2.12,1.29s-1.26,1.33-1,1.78-1.5,1.33-1.5,1.33l9-2.67h-1.33a1.17,1.17,0,0,0-.59-1.38c-.89-.55-1.34.24-1.59.14s.1-.76-.34-.82A.54.54,0,0,0,237.81,289.28Z" style="fill:#fff;opacity:0.4"></path><path d="M219,293.68c.15-.64.94-1,1.39-.44s.89.24,1.38.44.55,1.09.55,1.09l3.11-.52-7.08,2.5,1-.89s-.91.15-1-1S219,293.68,219,293.68Z" style="fill:#fff;opacity:0.4"></path><rect x="138.63" y="229.01" width="4.04" height="109.54" style="fill:#407BFF"></rect><rect x="160.16" y="229.01" width="4.04" height="109.54" style="fill:#407BFF"></rect><rect x="181.69" y="229.01" width="4.04" height="109.54" style="fill:#407BFF"></rect><rect x="203.22" y="229.01" width="4.04" height="109.54" style="fill:#407BFF"></rect><rect x="224.75" y="229.01" width="4.04" height="109.54" style="fill:#407BFF"></rect><rect x="246.28" y="229.01" width="4.04" height="109.54" style="fill:#407BFF"></rect><rect x="138.63" y="229.01" width="4.04" height="109.54" style="fill:#fff;opacity:0.6000000000000001;isolation:isolate"></rect><rect x="160.16" y="229.01" width="4.04" height="109.54" style="fill:#fff;opacity:0.6000000000000001;isolation:isolate"></rect><rect x="181.69" y="229.01" width="4.04" height="109.54" style="fill:#fff;opacity:0.6000000000000001;isolation:isolate"></rect><rect x="203.22" y="229.01" width="4.04" height="109.54" style="fill:#fff;opacity:0.6000000000000001;isolation:isolate"></rect><rect x="224.75" y="229.01" width="4.04" height="109.54" style="fill:#fff;opacity:0.6000000000000001;isolation:isolate"></rect><rect x="246.28" y="229.01" width="4.04" height="109.54" style="fill:#fff;opacity:0.6000000000000001;isolation:isolate"></rect><polygon points="253.03 232.84 135.93 232.84 133.93 229.01 255.03 229.01 253.03 232.84" style="fill:#407BFF"></polygon><polygon points="135.93 335.01 253.03 335.01 255.03 338.84 133.93 338.84 135.93 335.01" style="fill:#407BFF"></polygon><polygon points="253.03 232.84 135.93 232.84 133.93 229.01 255.03 229.01 253.03 232.84" style="fill:#fff;opacity:0.4;isolation:isolate"></polygon><polygon points="135.93 335.01 253.03 335.01 255.03 338.84 133.93 338.84 135.93 335.01" style="fill:#fff;opacity:0.4;isolation:isolate"></polygon><path d="M157.8,298h8.51l-1.19,12.46H157.8A37,37,0,0,1,157.8,298Z" style="fill:#eec1bb"></path><path d="M252,235.54h-8.51L244.63,248H252A37,37,0,0,0,252,235.54Z" style="fill:#eec1bb"></path><path d="M146.83,243.59l1,.41.31-1,.69-2.25c2.68,1.14,5.38,2.25,8.08,3.35,1.51.63,3,1.22,4.56,1.83s3,1.21,4.58,1.79l1.11.42,0-1.14-.07-2.42c3.55,1.2,7.11,2.38,10.72,3.44-3.69-1.77-7.44-3.41-11.19-5l-.89-.38,0,1-.07,2.18c-1.14-.51-2.29-1-3.44-1.53-1.5-.65-3-1.33-4.51-2-3-1.28-6-2.56-9.06-3.79l-1-.41-.3,1-.67,2.32c-3.3-1.3-6.6-2.58-9.93-3.81-3.65-1.35-7.33-2.66-11-3.86,3.48,1.78,7,3.44,10.55,5.07S143.25,242,146.83,243.59Z" style="fill:#407BFF"></path><path d="M156.68,262.61l-.45-1.23-.48-1.33c2.26.08,4.51.13,6.77.19,2.74,0,5.47.07,8.21.05h1l-.28-.92c-.21-.72-.44-1.44-.67-2.16,2.62.14,5.24.23,7.87.24-2.87-.57-5.76-1.06-8.65-1.49l-.83-.12.18.88.45,2c-2.41-.16-4.83-.29-7.24-.42-2.74-.1-5.47-.24-8.21-.29l-1.46,0,.51,1.34.56,1.5c-2.93.21-5.85.45-8.78.73-3.35.35-6.7.71-10,1.23,3.38.15,6.76.15,10.13.13s6.74-.14,10.1-.27Z" style="fill:#407BFF"></path><path d="M188.1,266.46c-1.43,0-2.85,0-4.27.11s-2.84.16-4.26.25l-1.12.07.64,1,.76,1.21-1.63.26c-.94.16-1.88.31-2.82.49-1.88.35-3.76.68-5.63,1.08l-1.52.32.92,1.22.75,1c-2.58.64-5.16,1.3-7.73,2-3,.85-6.07,1.73-9.06,2.74,3.14-.37,6.25-.89,9.36-1.43s6.19-1.17,9.27-1.81l1.43-.3-.87-1.2-.66-.92,4.11-.83c.93-.18,1.86-.4,2.8-.6s1.86-.41,2.79-.64l1.25-.3-.74-1-1-1.27c1-.19,2-.38,3-.59C185.33,267.12,186.72,266.81,188.1,266.46Z" style="fill:#407BFF"></path></g></g></svg>