<?xml version="1.0" encoding="UTF-8" standalone="no"?>
<svg width="64" height="64" viewBox="0 0 64 64" fill="none" xmlns="http://www.w3.org/2000/svg">
  <path d="M32 2C15.432 2 2 15.432 2 32C2 48.568 15.432 62 32 62C48.568 62 62 48.568 62 32C62 15.432 48.568 2 32 2ZM32 6C46.359 6 58 17.641 58 32C58 46.359 46.359 58 32 58C17.641 58 6 46.359 6 32C6 17.641 17.641 6 32 6Z" fill="#1F2937" fill-opacity="0.2"/>
  <path d="M32 12C20.954 12 12 20.954 12 32C12 43.046 20.954 52 32 52C43.046 52 52 43.046 52 32C52 20.954 43.046 12 32 12ZM32 16C40.837 16 48 23.163 48 32C48 40.837 40.837 48 32 48C23.163 48 16 40.837 16 32C16 23.163 23.163 16 32 16Z" fill="#1F2937" fill-opacity="0.2"/>
  <path d="M32 22C26.477 22 22 26.477 22 32C22 37.523 26.477 42 32 42C37.523 42 42 37.523 42 32C42 26.477 37.523 22 32 22ZM32 26C35.314 26 38 28.686 38 32C38 35.314 35.314 38 32 38C28.686 38 26 35.314 26 32C26 28.686 28.686 26 32 26Z" fill="#1F2937" fill-opacity="0.2"/>
  <path d="M32 32C32 32.552 31.552 33 31 33C30.448 33 30 32.552 30 32C30 31.448 30.448 31 31 31C31.552 31 32 31.448 32 32Z" fill="#1F2937" fill-opacity="0.2"/>
</svg>
